<?xml version="1.0" encoding="UTF-8" standalone="no"?>
<!DOCTYPE svg PUBLIC "-//W3C//DTD SVG 1.1//EN" "http://www.w3.org/Graphics/SVG/1.1/DTD/svg11.dtd">
<svg version="1.1" xmlns="http://www.w3.org/2000/svg" xmlns:xlink="http://www.w3.org/1999/xlink" preserveAspectRatio="xMidYMid meet" viewBox="0 0 640 640" width="640" height="640"><defs><path d="M467.67 166.7C467.67 177.65 476.55 186.53 487.5 186.53C498.46 186.53 507.34 177.65 507.34 166.7C507.34 155.75 498.46 146.87 487.5 146.87C476.55 146.87 467.67 155.75 467.67 166.7Z" id="c2h9TdvILw"></path><path d="M467.67 166.7C467.67 177.65 476.55 186.53 487.5 186.53C498.46 186.53 507.34 177.65 507.34 166.7C507.34 155.75 498.46 146.87 487.5 146.87C476.55 146.87 467.67 155.75 467.67 166.7Z" id="a2A23EZxRz"></path><path d="M518.59 235.31C518.59 248.04 528.91 258.36 541.64 258.36C554.37 258.36 564.69 248.04 564.69 235.31C564.69 222.58 554.37 212.26 541.64 212.26C528.91 212.26 518.59 222.58 518.59 235.31Z" id="e6v96fjejd"></path><path d="M518.59 235.31C518.59 248.04 528.91 258.36 541.64 258.36C554.37 258.36 564.69 248.04 564.69 235.31C564.69 222.58 554.37 212.26 541.64 212.26C528.91 212.26 518.59 222.58 518.59 235.31Z" id="bQs0tdamq"></path><path d="M544.32 339.3C544.32 354.1 556.32 366.1 571.12 366.1C585.92 366.1 597.92 354.1 597.92 339.3C597.92 324.49 585.92 312.5 571.12 312.5C556.32 312.5 544.32 324.49 544.32 339.3Z" id="bLzJpolOw"></path><path d="M544.32 339.3C544.32 354.1 556.32 366.1 571.12 366.1C585.92 366.1 597.92 354.1 597.92 339.3C597.92 324.49 585.92 312.5 571.12 312.5C556.32 312.5 544.32 324.49 544.32 339.3Z" id="f6KtPK7vp"></path><path d="M515.91 464.19C515.91 481.06 529.59 494.74 546.47 494.74C563.34 494.74 577.02 481.06 577.02 464.19C577.02 447.31 563.34 433.63 546.47 433.63C529.59 433.63 515.91 447.31 515.91 464.19Z" id="dyJITSEHa"></path><path d="M515.91 464.19C515.91 481.06 529.59 494.74 546.47 494.74C563.34 494.74 577.02 481.06 577.02 464.19C577.02 447.31 563.34 433.63 546.47 433.63C529.59 433.63 515.91 447.31 515.91 464.19Z" id="a2ROe7zzy"></path><path d="M280.6 605.16C280.6 624.4 296.2 640 315.44 640C334.69 640 350.28 624.4 350.28 605.16C350.28 585.92 334.69 570.32 315.44 570.32C296.2 570.32 280.6 585.92 280.6 605.16Z" id="csnL4T8AX"></path><path d="M280.6 605.16C280.6 624.4 296.2 640 315.44 640C334.69 640 350.28 624.4 350.28 605.16C350.28 585.92 334.69 570.32 315.44 570.32C296.2 570.32 280.6 585.92 280.6 605.16Z" id="b2cGw6lNbD"></path><path d="M423.72 564.42C423.72 583.07 438.84 598.19 457.49 598.19C476.14 598.19 491.26 583.07 491.26 564.42C491.26 545.77 476.14 530.65 457.49 530.65C438.84 530.65 423.72 545.77 423.72 564.42Z" id="aoq9XCjy2"></path><path d="M423.72 564.42C423.72 583.07 438.84 598.19 457.49 598.19C476.14 598.19 491.26 583.07 491.26 564.42C491.26 545.77 476.14 530.65 457.49 530.65C438.84 530.65 423.72 545.77 423.72 564.42Z" id="d2sf7CFavD"></path><path d="M135.34 163.48C135.34 174.44 144.22 183.32 155.18 183.32C166.13 183.32 175.01 174.44 175.01 163.48C175.01 152.53 166.13 143.65 155.18 143.65C144.22 143.65 135.34 152.53 135.34 163.48Z" id="c11vLrADGc"></path><path d="M135.34 163.48C135.34 174.44 144.22 183.32 155.18 183.32C166.13 183.32 175.01 174.44 175.01 163.48C175.01 152.53 166.13 143.65 155.18 143.65C144.22 143.65 135.34 152.53 135.34 163.48Z" id="b3RgVEd5OR"></path><path d="M74.24 236.92C74.24 249.65 84.56 259.97 97.29 259.97C110.02 259.97 120.34 249.65 120.34 236.92C120.34 224.19 110.02 213.87 97.29 213.87C84.56 213.87 74.24 224.19 74.24 236.92Z" id="bidWqFUm"></path><path d="M74.24 236.92C74.24 249.65 84.56 259.97 97.29 259.97C110.02 259.97 120.34 249.65 120.34 236.92C120.34 224.19 110.02 213.87 97.29 213.87C84.56 213.87 74.24 224.19 74.24 236.92Z" id="anLrZjsHi"></path><path d="M42.61 339.3C42.61 354.1 54.61 366.1 69.41 366.1C84.22 366.1 96.21 354.1 96.21 339.3C96.21 324.49 84.22 312.5 69.41 312.5C54.61 312.5 42.61 324.49 42.61 339.3Z" id="h12fNFMUro"></path><path d="M42.61 339.3C42.61 354.1 54.61 366.1 69.41 366.1C84.22 366.1 96.21 354.1 96.21 339.3C96.21 324.49 84.22 312.5 69.41 312.5C54.61 312.5 42.61 324.49 42.61 339.3Z" id="d1HfV5hkq0"></path><path d="M62.98 463.12C62.98 479.99 76.66 493.67 93.53 493.67C110.41 493.67 124.09 479.99 124.09 463.12C124.09 446.24 110.41 432.56 93.53 432.56C76.66 432.56 62.98 446.24 62.98 463.12Z" id="aX84aTZOI"></path><path d="M62.98 463.12C62.98 479.99 76.66 493.67 93.53 493.67C110.41 493.67 124.09 479.99 124.09 463.12C124.09 446.24 110.41 432.56 93.53 432.56C76.66 432.56 62.98 446.24 62.98 463.12Z" id="c2By15RlgW"></path><path d="M143.38 561.21C143.38 579.86 158.5 594.97 177.15 594.97C195.8 594.97 210.92 579.86 210.92 561.21C210.92 542.56 195.8 527.44 177.15 527.44C158.5 527.44 143.38 542.56 143.38 561.21Z" id="d3Syk980Wm"></path><path d="M143.38 561.21C143.38 579.86 158.5 594.97 177.15 594.97C195.8 594.97 210.92 579.86 210.92 561.21C210.92 542.56 195.8 527.44 177.15 527.44C158.5 527.44 143.38 542.56 143.38 561.21Z" id="eHO5Op3EL"></path><path d="M312.76 219.77C266.13 220.3 194.3 237.45 194.3 248.17C194.3 257.29 196.45 267.47 207.71 267.47C209.31 267.47 211.46 267.47 213.07 266.93C213.07 266.93 224.32 264.25 243.62 261.04C245.76 261.57 247.91 263.18 247.37 266.93C246.3 312.5 221.64 460.97 214.67 479.73C213.07 484.02 215.75 484.56 218.43 485.09C225.93 486.7 229.68 487.24 233.43 477.59C265.59 401.47 277.92 292.13 280.6 257.82C283.28 255.14 286.5 256.21 286.5 256.21C286.45 256.21 286.02 256.21 285.96 256.21C290.79 255.68 295.61 255.68 300.44 255.14C303.12 255.68 306.87 257.82 307.4 261.57C307.4 264.25 307.4 267.47 306.87 271.22C304.19 295.88 303.12 464.19 303.65 478.12C304.19 487.24 315.98 488.84 327.24 487.24C337.96 486.16 337.42 463.65 337.42 455.08C333.67 384.32 336.88 280.87 337.96 257.29C339.03 255.68 340.64 254.61 342.78 254.07C347.6 254.07 351.89 254.61 356.18 254.61C357.79 255.14 359.4 256.21 360.47 258.36C362.61 263.72 364.76 272.29 365.83 284.09C369.58 319.46 378.69 427.74 390.49 472.23C391.56 476.52 394.77 483.48 405.49 480.8C415.68 478.66 418.36 475.44 417.29 469.01C416.21 463.12 394.77 339.3 395.85 265.86C395.85 261.04 398.53 259.97 401.21 259.43C410.32 261.04 416.75 262.65 421.04 264.25C424.25 265.33 426.4 265.86 428.54 265.86C431.76 265.86 432.83 263.18 436.05 248.17C436.1 247.91 436.53 245.76 436.58 245.49C437.65 243.89 437.65 242.28 436.05 240.67C425.33 227.27 367.44 219.77 318.12 219.77C316.52 219.77 314.37 219.77 312.76 219.77Z" id="b1lyVuaRur"></path><path d="M312.76 219.77C266.13 220.3 194.3 237.45 194.3 248.17C194.3 257.29 196.45 267.47 207.71 267.47C209.31 267.47 211.46 267.47 213.07 266.93C213.07 266.93 224.32 264.25 243.62 261.04C245.76 261.57 247.91 263.18 247.37 266.93C246.3 312.5 221.64 460.97 214.67 479.73C213.07 484.02 215.75 484.56 218.43 485.09C225.93 486.7 229.68 487.24 233.43 477.59C265.59 401.47 277.92 292.13 280.6 257.82C283.28 255.14 286.5 256.21 286.5 256.21C286.45 256.21 286.02 256.21 285.96 256.21C290.79 255.68 295.61 255.68 300.44 255.14C303.12 255.68 306.87 257.82 307.4 261.57C307.4 264.25 307.4 267.47 306.87 271.22C304.19 295.88 303.12 464.19 303.65 478.12C304.19 487.24 315.98 488.84 327.24 487.24C337.96 486.16 337.42 463.65 337.42 455.08C333.67 384.32 336.88 280.87 337.96 257.29C339.03 255.68 340.64 254.61 342.78 254.07C347.6 254.07 351.89 254.61 356.18 254.61C357.79 255.14 359.4 256.21 360.47 258.36C362.61 263.72 364.76 272.29 365.83 284.09C369.58 319.46 378.69 427.74 390.49 472.23C391.56 476.52 394.77 483.48 405.49 480.8C415.68 478.66 418.36 475.44 417.29 469.01C416.21 463.12 394.77 339.3 395.85 265.86C395.85 261.04 398.53 259.97 401.21 259.43C410.32 261.04 416.75 262.65 421.04 264.25C424.25 265.33 426.4 265.86 428.54 265.86C431.76 265.86 432.83 263.18 436.05 248.17C436.1 247.91 436.53 245.76 436.58 245.49C437.65 243.89 437.65 242.28 436.05 240.67C425.33 227.27 367.44 219.77 318.12 219.77C316.52 219.77 314.37 219.77 312.76 219.77Z" id="epC06JkAC"></path><path d="M312.76 19.3C312.76 29.95 321.4 38.59 332.06 38.59C342.72 38.59 351.36 29.95 351.36 19.3C351.36 8.64 342.72 0 332.06 0C321.4 0 312.76 8.64 312.76 19.3Z" id="b2rwj2D2Vb"></path><path d="M312.76 19.3C312.76 29.95 321.4 38.59 332.06 38.59C342.72 38.59 351.36 29.95 351.36 19.3C351.36 8.64 342.72 0 332.06 0C321.4 0 312.76 8.64 312.76 19.3Z" id="fXtPWNBQU"></path><path d="M398.24 82.29L399.79 82.42L401.35 82.62L402.91 82.89L404.49 83.22L406.07 83.61L407.65 84.07L409.23 84.6L410.82 85.2L412.39 85.88L413.96 86.62L415.52 87.43L417.07 88.32L418.61 89.28L420.13 90.32L421.63 91.43L423.11 92.62L424.56 93.89L425.99 95.24L427.39 96.67L428.77 98.18L430.11 99.77L431.41 101.45L432.68 103.21L433.9 105.06L435.3 107.47L436.53 109.88L437.59 112.29L438.49 114.7L439.24 117.09L439.83 119.47L440.28 121.84L440.58 124.2L440.75 126.53L440.8 128.84L440.71 131.13L440.51 133.4L440.19 135.63L439.76 137.83L439.23 140L438.59 142.13L437.87 144.21L437.05 146.26L436.15 148.26L435.18 150.22L434.12 152.12L433.01 153.97L431.82 155.77L430.58 157.51L429.29 159.18L427.95 160.8L426.57 162.34L425.15 163.82L423.7 165.23L422.22 166.57L420.72 167.82L419.2 169L417.68 170.1L416.14 171.11L414.61 172.04L413.08 172.88L411.56 173.62L410.05 174.27L408.56 174.82L407.1 175.28L405.63 175.7L404.18 176.1L402.76 176.47L401.37 176.82L399.99 177.14L398.65 177.43L397.32 177.7L396.01 177.96L394.73 178.19L393.46 178.4L392.21 178.6L390.98 178.77L389.76 178.94L388.55 179.09L387.36 179.22L386.18 179.35L385.02 179.47L383.86 179.57L382.71 179.67L381.57 179.77L380.44 179.85L379.32 179.94L378.19 180.02L377.08 180.1L375.96 180.18L374.85 180.26L373.74 180.35L372.62 180.44L371.51 180.53L370.39 180.63L368.15 180.85L367.02 180.98L365.88 181.11L364.74 181.26L363.58 181.43L362.42 181.61L361.25 181.8L360.06 182.01L358.86 182.24L358.42 182.33L357.99 182.41L357.56 182.5L357.14 182.6L356.72 182.69L356.31 182.8L355.91 182.9L355.11 183.12L354.72 183.23L353.58 183.59L353.22 183.72L352.85 183.85L352.13 184.11L351.78 184.25L351.43 184.38L350.75 184.66L350.41 184.81L350.08 184.95L349.75 185.1L348.79 185.55L348.48 185.7L347.86 186.01L347.55 186.17L347.25 186.33L346.95 186.48L346.65 186.64L345.78 187.12L345.49 187.28L345.21 187.44L344.92 187.6L344.57 187.8L344.23 187.97L343.89 188.13L343.57 188.28L343.27 188.41L342.97 188.52L342.69 188.61L342.42 188.69L342.16 188.75L341.91 188.79L341.67 188.82L341.45 188.83L341.24 188.82L341.04 188.8L340.85 188.75L340.68 188.69L340.52 188.62L340.37 188.52L340.23 188.41L340.1 188.27L339.99 188.12L339.88 187.96L339.79 187.77L339.71 187.57L339.65 187.34L339.59 187.1L339.55 186.84L339.52 186.56L339.5 186.26L339.5 185.61L339.52 185.25L339.55 184.88L339.59 184.49L339.65 184.07L339.71 183.64L339.79 183.19L339.88 182.71L339.99 182.22L340.1 181.71L340.52 179.84L340.97 177.86L341.46 175.77L341.98 173.58L342.53 171.3L343.11 168.94L343.72 166.49L344.36 163.98L345.03 161.4L345.73 158.76L346.46 156.07L347.21 153.34L347.99 150.58L348.8 147.78L349.64 144.96L350.49 142.13L351.38 139.29L352.29 136.45L353.22 133.61L354.17 130.79L355.15 127.98L356.14 125.21L357.16 122.47L358.2 119.77L359.26 117.11L360.34 114.52L361.43 111.98L362.55 109.52L363.68 107.13L364.82 104.82L365.99 102.61L367.17 100.49L368.36 98.48L369.57 96.58L370.79 94.79L372.03 93.14L373.27 91.61L374.53 90.23L375.8 88.99L377.09 87.91L378.12 87.17L379.2 86.47L380.33 85.83L381.5 85.23L382.71 84.69L383.97 84.19L385.27 83.75L386.6 83.36L387.96 83.03L389.36 82.75L390.78 82.52L392.23 82.36L393.7 82.25L395.2 82.2L396.71 82.22L398.24 82.29ZM397.31 102.85L395.56 103.43L393.87 104.22L392.25 105.21L390.69 106.39L389.19 107.74L387.75 109.24L386.38 110.9L385.06 112.68L383.8 114.59L382.59 116.6L381.45 118.71L380.36 120.89L379.32 123.14L378.34 125.45L377.41 127.8L376.54 130.17L375.71 132.56L374.94 134.96L374.22 137.34L373.55 139.69L372.92 142.01L372.35 144.27L371.82 146.47L371.33 148.6L370.9 150.63L370.5 152.56L370.15 154.37L369.85 156.05L369.58 157.59L369.49 157.88L369.41 158.15L369.34 158.42L369.28 158.68L369.24 158.94L369.2 159.18L369.18 159.41L369.16 159.63L369.16 159.84L369.17 160.04L369.18 160.23L369.21 160.41L369.29 160.73L369.35 160.88L369.41 161.01L369.48 161.13L369.57 161.24L369.66 161.34L369.86 161.5L369.98 161.56L370.1 161.61L370.23 161.64L370.37 161.66L370.52 161.67L370.67 161.67L370.83 161.65L370.99 161.61L371.17 161.57L371.35 161.51L371.53 161.43L371.73 161.34L372.07 161.19L372.43 161.04L372.8 160.88L373.18 160.71L373.57 160.54L373.97 160.37L374.38 160.2L374.79 160.02L375.65 159.66L376.09 159.47L376.54 159.29L376.99 159.1L377.45 158.92L377.92 158.73L378.86 158.37L379.34 158.19L379.83 158.01L380.31 157.83L381.29 157.49L381.79 157.32L382.28 157.16L382.78 157L383.28 156.85L383.77 156.71L384.27 156.57L384.77 156.44L385.26 156.31L385.75 156.19L386.24 156.08L386.73 155.98L390.03 155.25L393.1 154.34L395.95 153.26L398.59 152.02L401.02 150.63L403.24 149.12L405.26 147.48L407.09 145.73L408.73 143.89L410.19 141.96L411.47 139.96L412.58 137.9L413.51 135.8L414.29 133.66L414.9 131.5L415.37 129.33L415.68 127.16L415.86 125.01L415.9 122.88L415.8 120.79L415.58 118.76L415.24 116.79L414.78 114.9L414.21 113.1L413.54 111.39L412.77 109.81L411.89 108.34L410.93 107.02L409.89 105.85L408.76 104.84L407.56 104.01L406.29 103.36L404.96 102.91L402.95 102.52L401 102.38L399.12 102.5L397.31 102.85Z" id="j1RZ34YAg"></path><path d="M398.24 82.29L399.79 82.42L401.35 82.62L402.91 82.89L404.49 83.22L406.07 83.61L407.65 84.07L409.23 84.6L410.82 85.2L412.39 85.88L413.96 86.62L415.52 87.43L417.07 88.32L418.61 89.28L420.13 90.32L421.63 91.43L423.11 92.62L424.56 93.89L425.99 95.24L427.39 96.67L428.77 98.18L430.11 99.77L431.41 101.45L432.68 103.21L433.9 105.06L435.3 107.47L436.53 109.88L437.59 112.29L438.49 114.7L439.24 117.09L439.83 119.47L440.28 121.84L440.58 124.2L440.75 126.53L440.8 128.84L440.71 131.13L440.51 133.4L440.19 135.63L439.76 137.83L439.23 140L438.59 142.13L437.87 144.21L437.05 146.26L436.15 148.26L435.18 150.22L434.12 152.12L433.01 153.97L431.82 155.77L430.58 157.51L429.29 159.18L427.95 160.8L426.57 162.34L425.15 163.82L423.7 165.23L422.22 166.57L420.72 167.82L419.2 169L417.68 170.1L416.14 171.11L414.61 172.04L413.08 172.88L411.56 173.62L410.05 174.27L408.56 174.82L407.1 175.28L405.63 175.7L404.18 176.1L402.76 176.47L401.37 176.82L399.99 177.14L398.65 177.43L397.32 177.7L396.01 177.96L394.73 178.19L393.46 178.4L392.21 178.6L390.98 178.77L389.76 178.94L388.55 179.09L387.36 179.22L386.18 179.35L385.02 179.47L383.86 179.57L382.71 179.67L381.57 179.77L380.44 179.85L379.32 179.94L378.19 180.02L377.08 180.1L375.96 180.18L374.85 180.26L373.74 180.35L372.62 180.44L371.51 180.53L370.39 180.63L368.15 180.85L367.02 180.98L365.88 181.11L364.74 181.26L363.58 181.43L362.42 181.61L361.25 181.8L360.06 182.01L358.86 182.24L358.42 182.33L357.99 182.41L357.56 182.5L357.14 182.6L356.72 182.69L356.31 182.8L355.91 182.9L355.11 183.12L354.72 183.23L353.58 183.59L353.22 183.72L352.85 183.85L352.13 184.11L351.78 184.25L351.43 184.38L350.75 184.66L350.41 184.81L350.08 184.95L349.75 185.1L348.79 185.55L348.48 185.7L347.86 186.01L347.55 186.17L347.25 186.33L346.95 186.48L346.65 186.64L345.78 187.12L345.49 187.28L345.21 187.44L344.92 187.6L344.57 187.8L344.23 187.97L343.89 188.13L343.57 188.28L343.27 188.41L342.97 188.52L342.69 188.61L342.42 188.69L342.16 188.75L341.91 188.79L341.67 188.82L341.45 188.83L341.24 188.82L341.04 188.8L340.85 188.75L340.68 188.69L340.52 188.62L340.37 188.52L340.23 188.41L340.1 188.27L339.99 188.12L339.88 187.96L339.79 187.77L339.71 187.57L339.65 187.34L339.59 187.1L339.55 186.84L339.52 186.56L339.5 186.26L339.5 185.61L339.52 185.25L339.55 184.88L339.59 184.49L339.65 184.07L339.71 183.64L339.79 183.19L339.88 182.71L339.99 182.22L340.1 181.71L340.52 179.84L340.97 177.86L341.46 175.77L341.98 173.58L342.53 171.3L343.11 168.94L343.72 166.49L344.36 163.98L345.03 161.4L345.73 158.76L346.46 156.07L347.21 153.34L347.99 150.58L348.8 147.78L349.64 144.96L350.49 142.13L351.38 139.29L352.29 136.45L353.22 133.61L354.17 130.79L355.15 127.98L356.14 125.21L357.16 122.47L358.2 119.77L359.26 117.11L360.34 114.52L361.43 111.98L362.55 109.52L363.68 107.13L364.82 104.82L365.99 102.61L367.17 100.49L368.36 98.48L369.57 96.58L370.79 94.79L372.03 93.14L373.27 91.61L374.53 90.23L375.8 88.99L377.09 87.91L378.12 87.17L379.2 86.47L380.33 85.83L381.5 85.23L382.71 84.69L383.97 84.19L385.27 83.75L386.6 83.36L387.96 83.03L389.36 82.75L390.78 82.52L392.23 82.36L393.7 82.25L395.2 82.2L396.71 82.22L398.24 82.29ZM397.31 102.85L395.56 103.43L393.87 104.22L392.25 105.21L390.69 106.39L389.19 107.74L387.75 109.24L386.38 110.9L385.06 112.68L383.8 114.59L382.59 116.6L381.45 118.71L380.36 120.89L379.32 123.14L378.34 125.45L377.41 127.8L376.54 130.17L375.71 132.56L374.94 134.96L374.22 137.34L373.55 139.69L372.92 142.01L372.35 144.27L371.82 146.47L371.33 148.6L370.9 150.63L370.5 152.56L370.15 154.37L369.85 156.05L369.58 157.59L369.49 157.88L369.41 158.15L369.34 158.42L369.28 158.68L369.24 158.94L369.2 159.18L369.18 159.41L369.16 159.63L369.16 159.84L369.17 160.04L369.18 160.23L369.21 160.41L369.29 160.73L369.35 160.88L369.41 161.01L369.48 161.13L369.57 161.24L369.66 161.34L369.86 161.5L369.98 161.56L370.1 161.61L370.23 161.64L370.37 161.66L370.52 161.67L370.67 161.67L370.83 161.65L370.99 161.61L371.17 161.57L371.35 161.51L371.53 161.43L371.73 161.34L372.07 161.19L372.43 161.04L372.8 160.88L373.18 160.71L373.57 160.54L373.97 160.37L374.38 160.2L374.79 160.02L375.65 159.66L376.09 159.47L376.54 159.29L376.99 159.1L377.45 158.92L377.92 158.73L378.86 158.37L379.34 158.19L379.83 158.01L380.31 157.83L381.29 157.49L381.79 157.32L382.28 157.16L382.78 157L383.28 156.85L383.77 156.71L384.27 156.57L384.77 156.44L385.26 156.31L385.75 156.19L386.24 156.08L386.73 155.98L390.03 155.25L393.1 154.34L395.95 153.26L398.59 152.02L401.02 150.63L403.24 149.12L405.26 147.48L407.09 145.73L408.73 143.89L410.19 141.96L411.47 139.96L412.58 137.9L413.51 135.8L414.29 133.66L414.9 131.5L415.37 129.33L415.68 127.16L415.86 125.01L415.9 122.88L415.8 120.79L415.58 118.76L415.24 116.79L414.78 114.9L414.21 113.1L413.54 111.39L412.77 109.81L411.89 108.34L410.93 107.02L409.89 105.85L408.76 104.84L407.56 104.01L406.29 103.36L404.96 102.91L402.95 102.52L401 102.38L399.12 102.5L397.31 102.85Z" id="ac2pYuNy"></path><path d="M336.88 101.31C326.7 135.61 328.31 170.99 326.7 181.17C325.09 191.89 319.2 194.04 317.59 183.32C312.23 148.48 303.65 64.86 326.7 64.86C339.56 64.86 343.85 77.72 336.88 101.31Z" id="c4S9wjPFpW"></path><path d="M336.88 101.31C326.7 135.61 328.31 170.99 326.7 181.17C325.09 191.89 319.2 194.04 317.59 183.32C312.23 148.48 303.65 64.86 326.7 64.86C339.56 64.86 343.85 77.72 336.88 101.31Z" id="aFaq4axeE"></path><path d="M270.26 83.77L271.45 83.94L272.59 84.19L273.69 84.51L274.74 84.91L275.75 85.37L276.72 85.9L277.64 86.49L278.52 87.15L279.36 87.88L280.17 88.66L280.93 89.51L281.65 90.41L282.34 91.37L282.98 92.38L283.6 93.45L284.17 94.57L284.71 95.74L285.22 96.96L285.69 98.23L286.13 99.54L286.53 100.9L286.91 102.29L287.25 103.73L287.57 105.21L287.85 106.72L288.11 108.27L288.35 110.67L288.61 113.01L288.87 115.32L289.13 117.59L289.41 119.81L289.69 122L289.98 124.15L290.27 126.25L290.57 128.32L290.87 130.34L291.18 132.33L291.49 134.28L291.81 136.19L292.13 138.07L292.46 139.9L292.79 141.7L293.12 143.47L293.46 145.2L293.8 146.89L294.14 148.54L294.48 150.16L294.82 151.75L295.17 153.3L295.52 154.82L295.86 156.3L296.21 157.75L296.56 159.17L296.91 160.55L297.26 161.9L297.6 163.22L297.95 164.51L298.3 165.77L298.64 167L298.98 168.19L299.32 169.36L299.66 170.49L299.99 171.6L300.32 172.67L300.65 173.72L300.97 174.74L301.17 175.3L301.35 175.83L301.51 176.36L301.66 176.86L301.8 177.35L301.93 177.83L302.04 178.28L302.14 178.72L302.22 179.15L302.29 179.56L302.35 179.95L302.4 180.32L302.43 180.68L302.45 181.02L302.46 181.35L302.46 181.65L302.44 181.94L302.41 182.22L302.37 182.47L302.31 182.71L302.25 182.94L302.17 183.14L302.08 183.33L301.97 183.5L301.86 183.65L301.74 183.79L301.6 183.91L301.45 184.01L301.29 184.1L301.12 184.16L300.94 184.21L300.75 184.24L300.55 184.26L300.33 184.25L300.11 184.23L299.87 184.19L299.63 184.13L299.37 184.06L299.1 183.96L298.83 183.85L298.17 183.53L297.5 183.22L296.81 182.91L296.1 182.61L295.38 182.32L294.64 182.03L293.88 181.75L293.11 181.47L292.33 181.2L291.53 180.93L290.73 180.67L289.91 180.41L289.08 180.16L287.4 179.68L286.55 179.44L285.69 179.22L284.82 178.99L283.95 178.77L282.21 178.35L279.57 177.75L278.69 177.57L277.81 177.38L276.94 177.2L276.06 177.03L275.19 176.86L274.33 176.69L273.47 176.53L272.62 176.37L271.77 176.22L270.94 176.07L270.11 175.93L269.29 175.79L268.48 175.66L266.9 175.4L266.13 175.28L265.01 175.1L263.82 174.91L262.57 174.69L261.26 174.45L259.9 174.18L258.49 173.89L257.03 173.57L255.53 173.22L254.01 172.85L252.45 172.45L250.86 172.01L249.26 171.55L247.64 171.06L246 170.54L244.37 169.98L242.73 169.39L241.09 168.77L239.46 168.12L237.85 167.43L236.25 166.7L234.67 165.94L233.12 165.14L231.6 164.3L230.12 163.43L228.68 162.51L227.29 161.56L225.94 160.57L224.66 159.53L223.43 158.46L222.26 157.34L221.17 156.17L220.14 154.97L219.2 153.72L218.34 152.42L217.57 151.08L216.9 149.69L216.32 148.25L215.84 146.77L215.47 145.23L215.21 143.65L215.03 142.05L214.9 140.46L214.82 138.89L214.79 137.33L214.81 135.79L214.88 134.25L215 132.74L215.17 131.23L215.38 129.74L215.65 128.27L215.97 126.8L216.34 125.35L216.76 123.92L217.24 122.49L217.76 121.09L218.34 119.69L218.97 118.31L219.65 116.94L220.39 115.58L221.17 114.24L222.01 112.91L222.91 111.59L223.86 110.29L224.86 109L225.91 107.72L227.02 106.45L228.19 105.2L229.41 103.96L230.69 102.73L232.02 101.52L233.41 100.31L234.85 99.12L236.35 97.95L237.9 96.78L239.52 95.63L241.19 94.49L242.91 93.36L244.7 92.25L246.54 91.14L248.44 90.05L250.34 89.01L252.19 88.07L253.98 87.23L255.72 86.48L257.4 85.82L259.03 85.25L260.61 84.77L262.14 84.38L263.62 84.07L265.04 83.85L266.42 83.71L267.75 83.65L269.03 83.67L270.26 83.77ZM254.87 109.35L254.18 109.51L253.42 109.77L252.62 110.13L251.77 110.57L250.89 111.1L249.98 111.72L249.05 112.41L248.1 113.18L247.15 114.01L246.2 114.91L245.26 115.88L244.34 116.9L243.43 117.97L242.57 119.09L241.73 120.25L240.95 121.46L240.22 122.7L239.54 123.97L238.94 125.27L238.41 126.59L237.96 127.93L237.61 129.28L237.35 130.65L237.2 132.02L237.15 133.4L237.23 134.77L237.44 136.13L237.78 137.49L238.26 138.83L238.62 139.61L239.05 140.42L239.53 141.23L240.08 142.07L240.69 142.91L241.36 143.76L242.09 144.62L242.88 145.49L243.73 146.36L244.64 147.24L245.62 148.11L246.66 148.99L247.75 149.86L248.91 150.73L250.13 151.58L251.41 152.44L252.76 153.28L254.16 154.1L255.62 154.92L257.15 155.72L258.74 156.5L260.38 157.26L262.09 158L263.86 158.71L265.7 159.4L267.59 160.07L269.54 160.7L271.56 161.3L273.63 161.88L273.69 161.87L273.83 161.83L273.91 161.79L274 161.74L274.09 161.68L274.18 161.61L274.28 161.53L274.48 161.35L274.7 161.13L274.92 160.87L275.03 160.73L275.14 160.59L275.47 160.11L275.77 159.57L275.86 159.38L276.04 158.98L276.12 158.77L276.19 158.56L276.26 158.34L276.31 158.12L276.31 156.59L276.29 154.9L276.26 153.05L276.21 151.07L276.13 148.98L276.02 146.79L275.87 144.52L275.69 142.19L275.46 139.81L275.19 137.41L274.86 134.99L274.47 132.58L274.03 130.2L273.51 127.85L272.93 125.57L272.28 123.35L271.54 121.24L270.72 119.23L269.81 117.35L268.81 115.61L267.71 114.04L266.51 112.64L265.2 111.44L263.78 110.46L262.25 109.71L260.6 109.2L258.82 108.96L256.91 109L254.87 109.35Z" id="c4ihuUFlM"></path><path d="M270.26 83.77L271.45 83.94L272.59 84.19L273.69 84.51L274.74 84.91L275.75 85.37L276.72 85.9L277.64 86.49L278.52 87.15L279.36 87.88L280.17 88.66L280.93 89.51L281.65 90.41L282.34 91.37L282.98 92.38L283.6 93.45L284.17 94.57L284.71 95.74L285.22 96.96L285.69 98.23L286.13 99.54L286.53 100.9L286.91 102.29L287.25 103.73L287.57 105.21L287.85 106.72L288.11 108.27L288.35 110.67L288.61 113.01L288.87 115.32L289.13 117.59L289.41 119.81L289.69 122L289.98 124.15L290.27 126.25L290.57 128.32L290.87 130.34L291.18 132.33L291.49 134.28L291.81 136.19L292.13 138.07L292.46 139.9L292.79 141.7L293.12 143.47L293.46 145.2L293.8 146.89L294.14 148.54L294.48 150.16L294.82 151.75L295.17 153.3L295.52 154.82L295.86 156.3L296.21 157.75L296.56 159.17L296.91 160.55L297.26 161.9L297.6 163.22L297.95 164.51L298.3 165.77L298.64 167L298.98 168.19L299.32 169.36L299.66 170.49L299.99 171.6L300.32 172.67L300.65 173.72L300.97 174.74L301.17 175.3L301.35 175.83L301.51 176.36L301.66 176.86L301.8 177.35L301.93 177.83L302.04 178.28L302.14 178.72L302.22 179.15L302.29 179.56L302.35 179.95L302.4 180.32L302.43 180.68L302.45 181.02L302.46 181.35L302.46 181.65L302.44 181.94L302.41 182.22L302.37 182.47L302.31 182.71L302.25 182.94L302.17 183.14L302.08 183.33L301.97 183.5L301.86 183.65L301.74 183.79L301.6 183.91L301.45 184.01L301.29 184.1L301.12 184.16L300.94 184.21L300.75 184.24L300.55 184.26L300.33 184.25L300.11 184.23L299.87 184.19L299.63 184.13L299.37 184.06L299.1 183.96L298.83 183.85L298.17 183.53L297.5 183.22L296.81 182.91L296.1 182.61L295.38 182.32L294.64 182.03L293.88 181.75L293.11 181.47L292.33 181.2L291.53 180.93L290.73 180.67L289.91 180.41L289.08 180.16L287.4 179.68L286.55 179.44L285.69 179.22L284.82 178.99L283.95 178.77L282.21 178.35L279.57 177.75L278.69 177.57L277.81 177.38L276.94 177.2L276.06 177.03L275.19 176.86L274.33 176.69L273.47 176.53L272.62 176.37L271.77 176.22L270.94 176.07L270.11 175.93L269.29 175.79L268.48 175.66L266.9 175.4L266.13 175.28L265.01 175.1L263.82 174.91L262.57 174.69L261.26 174.45L259.9 174.18L258.49 173.89L257.03 173.57L255.53 173.22L254.01 172.85L252.45 172.45L250.86 172.01L249.26 171.55L247.64 171.06L246 170.54L244.37 169.98L242.73 169.39L241.09 168.77L239.46 168.12L237.85 167.43L236.25 166.7L234.67 165.94L233.12 165.14L231.6 164.3L230.12 163.43L228.68 162.51L227.29 161.56L225.94 160.57L224.66 159.53L223.43 158.46L222.26 157.34L221.17 156.17L220.14 154.97L219.2 153.72L218.34 152.42L217.57 151.08L216.9 149.69L216.32 148.25L215.84 146.77L215.47 145.23L215.21 143.65L215.03 142.05L214.9 140.46L214.82 138.89L214.79 137.33L214.81 135.79L214.88 134.25L215 132.74L215.17 131.23L215.38 129.74L215.65 128.27L215.97 126.8L216.34 125.35L216.76 123.92L217.24 122.49L217.76 121.09L218.34 119.69L218.97 118.31L219.65 116.94L220.39 115.58L221.17 114.24L222.01 112.91L222.91 111.59L223.86 110.29L224.86 109L225.91 107.72L227.02 106.45L228.19 105.2L229.41 103.96L230.69 102.73L232.02 101.52L233.41 100.31L234.85 99.12L236.35 97.95L237.9 96.78L239.52 95.63L241.19 94.49L242.91 93.36L244.7 92.25L246.54 91.14L248.44 90.05L250.34 89.01L252.19 88.07L253.98 87.23L255.72 86.48L257.4 85.82L259.03 85.25L260.61 84.77L262.14 84.38L263.62 84.07L265.04 83.85L266.42 83.71L267.75 83.65L269.03 83.67L270.26 83.77ZM254.87 109.35L254.18 109.51L253.42 109.77L252.62 110.13L251.77 110.57L250.89 111.1L249.98 111.72L249.05 112.41L248.1 113.18L247.15 114.01L246.2 114.91L245.26 115.88L244.34 116.9L243.43 117.97L242.57 119.09L241.73 120.25L240.95 121.46L240.22 122.7L239.54 123.97L238.94 125.27L238.41 126.59L237.96 127.93L237.61 129.28L237.35 130.65L237.2 132.02L237.15 133.4L237.23 134.77L237.44 136.13L237.78 137.49L238.26 138.83L238.62 139.61L239.05 140.42L239.53 141.23L240.08 142.07L240.69 142.91L241.36 143.76L242.09 144.62L242.88 145.49L243.73 146.36L244.64 147.24L245.62 148.11L246.66 148.99L247.75 149.86L248.91 150.73L250.13 151.58L251.41 152.44L252.76 153.28L254.16 154.1L255.62 154.92L257.15 155.72L258.74 156.5L260.38 157.26L262.09 158L263.86 158.71L265.7 159.4L267.59 160.07L269.54 160.7L271.56 161.3L273.63 161.88L273.69 161.87L273.83 161.83L273.91 161.79L274 161.74L274.09 161.68L274.18 161.61L274.28 161.53L274.48 161.35L274.7 161.13L274.92 160.87L275.03 160.73L275.14 160.59L275.47 160.11L275.77 159.57L275.86 159.38L276.04 158.98L276.12 158.77L276.19 158.56L276.26 158.34L276.31 158.12L276.31 156.59L276.29 154.9L276.26 153.05L276.21 151.07L276.13 148.98L276.02 146.79L275.87 144.52L275.69 142.19L275.46 139.81L275.19 137.41L274.86 134.99L274.47 132.58L274.03 130.2L273.51 127.85L272.93 125.57L272.28 123.35L271.54 121.24L270.72 119.23L269.81 117.35L268.81 115.61L267.71 114.04L266.51 112.64L265.2 111.44L263.78 110.46L262.25 109.71L260.6 109.2L258.82 108.96L256.91 109L254.87 109.35Z" id="ijeBJ7FVs"></path></defs><g><g><g><use xlink:href="#c2h9TdvILw" opacity="1" fill="#009ee0" fill-opacity="1"></use><g><use xlink:href="#c2h9TdvILw" opacity="1" fill-opacity="0" stroke="#000000" stroke-width="1" stroke-opacity="0"></use></g></g><g><use xlink:href="#a2A23EZxRz" opacity="1" fill="#009ee0" fill-opacity="1"></use><g><use xlink:href="#a2A23EZxRz" opacity="1" fill-opacity="0" stroke="#000000" stroke-width="1" stroke-opacity="0"></use></g></g><g><use xlink:href="#e6v96fjejd" opacity="1" fill="#009ee0" fill-opacity="1"></use><g><use xlink:href="#e6v96fjejd" opacity="1" fill-opacity="0" stroke="#000000" stroke-width="1" stroke-opacity="0"></use></g></g><g><use xlink:href="#bQs0tdamq" opacity="1" fill="#009ee0" fill-opacity="1"></use><g><use xlink:href="#bQs0tdamq" opacity="1" fill-opacity="0" stroke="#000000" stroke-width="1" stroke-opacity="0"></use></g></g><g><use xlink:href="#bLzJpolOw" opacity="1" fill="#009ee0" fill-opacity="1"></use><g><use xlink:href="#bLzJpolOw" opacity="1" fill-opacity="0" stroke="#000000" stroke-width="1" stroke-opacity="0"></use></g></g><g><use xlink:href="#f6KtPK7vp" opacity="1" fill="#009ee0" fill-opacity="1"></use><g><use xlink:href="#f6KtPK7vp" opacity="1" fill-opacity="0" stroke="#000000" stroke-width="1" stroke-opacity="0"></use></g></g><g><use xlink:href="#dyJITSEHa" opacity="1" fill="#009ee0" fill-opacity="1"></use><g><use xlink:href="#dyJITSEHa" opacity="1" fill-opacity="0" stroke="#000000" stroke-width="1" stroke-opacity="0"></use></g></g><g><use xlink:href="#a2ROe7zzy" opacity="1" fill="#009ee0" fill-opacity="1"></use><g><use xlink:href="#a2ROe7zzy" opacity="1" fill-opacity="0" stroke="#000000" stroke-width="1" stroke-opacity="0"></use></g></g><g><use xlink:href="#csnL4T8AX" opacity="1" fill="#009ee0" fill-opacity="1"></use><g><use xlink:href="#csnL4T8AX" opacity="1" fill-opacity="0" stroke="#000000" stroke-width="1" stroke-opacity="0"></use></g></g><g><use xlink:href="#b2cGw6lNbD" opacity="1" fill="#009ee0" fill-opacity="1"></use><g><use xlink:href="#b2cGw6lNbD" opacity="1" fill-opacity="0" stroke="#000000" stroke-width="1" stroke-opacity="0"></use></g></g><g><use xlink:href="#aoq9XCjy2" opacity="1" fill="#009ee0" fill-opacity="1"></use><g><use xlink:href="#aoq9XCjy2" opacity="1" fill-opacity="0" stroke="#000000" stroke-width="1" stroke-opacity="0"></use></g></g><g><use xlink:href="#d2sf7CFavD" opacity="1" fill="#009ee0" fill-opacity="1"></use><g><use xlink:href="#d2sf7CFavD" opacity="1" fill-opacity="0" stroke="#000000" stroke-width="1" stroke-opacity="0"></use></g></g><g><use xlink:href="#c11vLrADGc" opacity="1" fill="#009ee0" fill-opacity="1"></use><g><use xlink:href="#c11vLrADGc" opacity="1" fill-opacity="0" stroke="#000000" stroke-width="1" stroke-opacity="0"></use></g></g><g><use xlink:href="#b3RgVEd5OR" opacity="1" fill="#009ee0" fill-opacity="1"></use><g><use xlink:href="#b3RgVEd5OR" opacity="1" fill-opacity="0" stroke="#000000" stroke-width="1" stroke-opacity="0"></use></g></g><g><use xlink:href="#bidWqFUm" opacity="1" fill="#009ee0" fill-opacity="1"></use><g><use xlink:href="#bidWqFUm" opacity="1" fill-opacity="0" stroke="#000000" stroke-width="1" stroke-opacity="0"></use></g></g><g><use xlink:href="#anLrZjsHi" opacity="1" fill="#009ee0" fill-opacity="1"></use><g><use xlink:href="#anLrZjsHi" opacity="1" fill-opacity="0" stroke="#000000" stroke-width="1" stroke-opacity="0"></use></g></g><g><use xlink:href="#h12fNFMUro" opacity="1" fill="#009ee0" fill-opacity="1"></use><g><use xlink:href="#h12fNFMUro" opacity="1" fill-opacity="0" stroke="#000000" stroke-width="1" stroke-opacity="0"></use></g></g><g><use xlink:href="#d1HfV5hkq0" opacity="1" fill="#009ee0" fill-opacity="1"></use><g><use xlink:href="#d1HfV5hkq0" opacity="1" fill-opacity="0" stroke="#000000" stroke-width="1" stroke-opacity="0"></use></g></g><g><use xlink:href="#aX84aTZOI" opacity="1" fill="#009ee0" fill-opacity="1"></use><g><use xlink:href="#aX84aTZOI" opacity="1" fill-opacity="0" stroke="#000000" stroke-width="1" stroke-opacity="0"></use></g></g><g><use xlink:href="#c2By15RlgW" opacity="1" fill="#009ee0" fill-opacity="1"></use><g><use xlink:href="#c2By15RlgW" opacity="1" fill-opacity="0" stroke="#000000" stroke-width="1" stroke-opacity="0"></use></g></g><g><use xlink:href="#d3Syk980Wm" opacity="1" fill="#009ee0" fill-opacity="1"></use><g><use xlink:href="#d3Syk980Wm" opacity="1" fill-opacity="0" stroke="#000000" stroke-width="1" stroke-opacity="0"></use></g></g><g><use xlink:href="#eHO5Op3EL" opacity="1" fill="#009ee0" fill-opacity="1"></use><g><use xlink:href="#eHO5Op3EL" opacity="1" fill-opacity="0" stroke="#000000" stroke-width="1" stroke-opacity="0"></use></g></g><g><use xlink:href="#b1lyVuaRur" opacity="1" fill="#009ee0" fill-opacity="1"></use><g><use xlink:href="#b1lyVuaRur" opacity="1" fill-opacity="0" stroke="#000000" stroke-width="1" stroke-opacity="0"></use></g></g><g><use xlink:href="#epC06JkAC" opacity="1" fill="#009ee0" fill-opacity="1"></use><g><use xlink:href="#epC06JkAC" opacity="1" fill-opacity="0" stroke="#000000" stroke-width="1" stroke-opacity="0"></use></g></g><g><use xlink:href="#b2rwj2D2Vb" opacity="1" fill="#009ee0" fill-opacity="1"></use><g><use xlink:href="#b2rwj2D2Vb" opacity="1" fill-opacity="0" stroke="#000000" stroke-width="1" stroke-opacity="0"></use></g></g><g><use xlink:href="#fXtPWNBQU" opacity="1" fill="#009ee0" fill-opacity="1"></use><g><use xlink:href="#fXtPWNBQU" opacity="1" fill-opacity="0" stroke="#000000" stroke-width="1" stroke-opacity="0"></use></g></g><g><use xlink:href="#j1RZ34YAg" opacity="1" fill="#009ee0" fill-opacity="1"></use><g><use xlink:href="#j1RZ34YAg" opacity="1" fill-opacity="0" stroke="#000000" stroke-width="1" stroke-opacity="0"></use></g></g><g><use xlink:href="#ac2pYuNy" opacity="1" fill="#009ee0" fill-opacity="1"></use><g><use xlink:href="#ac2pYuNy" opacity="1" fill-opacity="0" stroke="#000000" stroke-width="1" stroke-opacity="0"></use></g></g><g><use xlink:href="#c4S9wjPFpW" opacity="1" fill="#009ee0" fill-opacity="1"></use><g><use xlink:href="#c4S9wjPFpW" opacity="1" fill-opacity="0" stroke="#000000" stroke-width="1" stroke-opacity="0"></use></g></g><g><use xlink:href="#aFaq4axeE" opacity="1" fill="#009ee0" fill-opacity="1"></use><g><use xlink:href="#aFaq4axeE" opacity="1" fill-opacity="0" stroke="#000000" stroke-width="1" stroke-opacity="0"></use></g></g><g><use xlink:href="#c4ihuUFlM" opacity="1" fill="#009ee0" fill-opacity="1"></use><g><use xlink:href="#c4ihuUFlM" opacity="1" fill-opacity="0" stroke="#000000" stroke-width="1" stroke-opacity="0"></use></g></g><g><use xlink:href="#ijeBJ7FVs" opacity="1" fill="#009ee0" fill-opacity="1"></use><g><use xlink:href="#ijeBJ7FVs" opacity="1" fill-opacity="0" stroke="#000000" stroke-width="1" stroke-opacity="0"></use></g></g></g></g></svg>