<?xml version="1.0" encoding="UTF-8" standalone="no"?>
<!DOCTYPE svg PUBLIC "-//W3C//DTD SVG 1.1//EN" "http://www.w3.org/Graphics/SVG/1.1/DTD/svg11.dtd">
<svg version="1.1" xmlns="http://www.w3.org/2000/svg" xmlns:xlink="http://www.w3.org/1999/xlink" preserveAspectRatio="xMidYMid meet" viewBox="0 0 640 640" width="640" height="640"><defs><path d="M441.08 251.24C437.26 251.24 434.16 254.34 434.16 258.16C434.16 261.98 437.26 265.08 441.08 265.08C444.9 265.08 448 261.98 448 258.16C448 254.34 444.9 251.24 441.08 251.24Z" id="azdOeB5yX"></path><path d="M441.08 278.92C437.26 278.92 434.16 282.02 434.16 285.84C434.16 289.66 437.26 292.76 441.08 292.76C444.9 292.76 448 289.66 448 285.84C448 282.02 444.9 278.92 441.08 278.92Z" id="d7P3FZjfG"></path><path d="M441.08 306.59C437.26 306.59 434.16 309.69 434.16 313.51C434.16 317.33 437.26 320.43 441.08 320.43C444.9 320.43 448 317.33 448 313.51C448 309.69 444.9 306.59 441.08 306.59Z" id="d6yiZQRIn"></path><path d="M64.48 239.26L66 239.41L67.49 239.62L68.96 239.88L70.41 240.2L71.84 240.58L73.24 241.01L74.62 241.49L75.97 242.03L77.3 242.61L78.59 243.24L79.86 243.93L81.09 244.65L82.29 245.43L83.46 246.25L84.6 247.11L85.7 248.01L86.76 248.96L87.78 249.95L88.77 250.97L89.72 252.03L90.62 253.13L91.48 254.27L92.3 255.44L93.07 256.64L93.8 257.87L94.48 259.14L95.12 260.43L95.7 261.76L96.24 263.11L96.72 264.49L97.15 265.89L97.53 267.32L97.85 268.77L98.11 270.24L98.32 271.73L98.47 273.24L98.56 274.78L98.59 276.32L98.56 277.87L98.47 279.4L98.32 280.92L98.11 282.41L97.85 283.88L97.53 285.33L97.15 286.76L96.72 288.16L96.24 289.54L95.7 290.89L95.12 292.22L94.48 293.51L93.8 294.78L93.07 296.01L92.3 297.21L91.48 298.38L90.62 299.52L89.72 300.62L88.77 301.68L87.78 302.7L86.76 303.69L85.7 304.63L84.6 305.54L83.46 306.4L82.29 307.22L81.09 307.99L79.86 308.72L78.59 309.4L77.3 310.04L75.97 310.62L74.62 311.16L73.24 311.64L71.84 312.07L70.41 312.45L68.96 312.77L67.49 313.03L66 313.24L64.48 313.39L62.95 313.48L61.41 313.51L59.86 313.48L58.33 313.38L56.81 313.21L55.32 312.99L53.85 312.69L52.4 312.34L50.97 311.93L49.57 311.47L48.19 310.94L46.84 310.36L45.51 309.73L44.22 309.05L42.95 308.32L41.72 307.54L40.52 306.72L39.35 305.85L38.21 304.93L37.11 303.98L36.05 302.98L35.03 301.95L34.04 300.87L33.1 299.77L32.19 298.62L31.33 297.45L30.51 296.24L29.74 295.01L29.01 293.74L28.33 292.45L27.69 291.14L27.11 289.8L26.57 288.44L26.09 287.06L25.66 285.66L25.28 284.24L24.96 282.81L24.7 281.36L24.49 279.9L24.34 278.43L24.25 276.95L24.22 275.46L24.25 273.97L24.34 272.5L24.49 271.05L24.7 269.61L24.96 268.19L25.28 266.79L25.66 265.4L26.09 264.04L26.57 262.71L27.11 261.39L27.69 260.1L28.33 258.84L29.01 257.61L29.74 256.4L30.51 255.22L31.33 254.08L32.19 252.97L33.1 251.89L34.04 250.85L35.03 249.84L36.05 248.87L37.11 247.94L38.21 247.04L39.35 246.19L40.52 245.38L41.72 244.62L42.95 243.9L44.22 243.22L45.51 242.59L46.84 242.01L48.19 241.48L49.57 241L50.97 240.58L52.4 240.2L53.85 239.88L55.32 239.62L56.81 239.41L58.33 239.26L59.86 239.17L61.41 239.14L62.95 239.17L64.48 239.26ZM58.69 251.38L57.36 251.55L56.07 251.78L54.81 252.08L53.57 252.43L52.37 252.85L51.2 253.33L50.07 253.86L48.98 254.45L47.92 255.09L46.9 255.78L45.93 256.53L45 257.32L44.11 258.16L43.27 259.05L42.47 259.98L41.73 260.96L41.03 261.97L40.39 263.03L39.8 264.13L39.27 265.26L38.8 266.43L38.38 267.63L38.02 268.86L37.73 270.13L37.49 271.42L37.33 272.74L37.22 274.09L37.19 275.46L37.23 276.83L37.34 278.18L37.52 279.5L37.77 280.79L38.08 282.06L38.46 283.29L38.9 284.49L39.41 285.66L39.97 286.79L40.58 287.89L41.25 288.94L41.98 289.96L42.75 290.94L43.57 291.87L44.43 292.76L45.34 293.6L46.29 294.39L47.28 295.14L48.3 295.83L49.36 296.47L50.45 297.06L51.58 297.59L52.73 298.07L53.91 298.49L55.11 298.84L56.33 299.14L57.57 299.37L58.84 299.54L60.11 299.64L61.41 299.68L62.7 299.64L63.97 299.53L65.24 299.35L66.48 299.1L67.7 298.78L68.91 298.4L70.08 297.96L71.23 297.46L72.36 296.9L73.45 296.28L74.51 295.61L75.53 294.89L76.52 294.12L77.47 293.3L78.38 292.43L79.24 291.52L80.06 290.58L80.83 289.59L81.56 288.56L82.23 287.5L82.84 286.41L83.4 285.29L83.91 284.14L84.35 282.96L84.73 281.76L85.04 280.53L85.29 279.29L85.47 278.03L85.58 276.75L85.62 275.46L85.59 274.17L85.49 272.89L85.32 271.63L85.08 270.39L84.79 269.16L84.43 267.96L84.01 266.78L83.54 265.63L83.01 264.51L82.42 263.42L81.78 262.36L81.08 261.33L80.34 260.34L79.54 259.39L78.7 258.49L77.82 257.62L76.88 256.8L75.91 256.03L74.89 255.31L73.83 254.64L72.74 254.02L71.61 253.46L70.44 252.96L69.24 252.52L68 252.14L66.74 251.82L65.45 251.57L64.12 251.39L62.78 251.28L61.41 251.24L60.03 251.28L58.69 251.38Z" id="hXfHLDPzR"></path><path d="M323.08 152.78L324.59 152.93L326.09 153.15L327.56 153.43L329.01 153.77L330.44 154.16L331.84 154.61L333.22 155.12L334.57 155.68L335.89 156.29L337.19 156.95L338.45 157.65L339.69 158.41L340.89 159.22L342.06 160.07L343.19 160.96L344.29 161.9L345.35 162.87L346.38 163.89L347.36 164.95L348.31 166.04L349.21 167.17L350.08 168.34L350.9 169.54L351.67 170.77L352.4 172.04L353.08 173.33L353.71 174.65L354.3 176L354.83 177.37L355.31 178.77L355.74 180.2L356.12 181.64L356.44 183.11L356.71 184.59L356.92 186.1L357.07 187.62L357.16 189.15L357.19 190.7L357.16 192.25L357.07 193.78L356.92 195.29L356.71 196.79L356.44 198.26L356.12 199.71L355.74 201.14L355.31 202.54L354.83 203.92L354.3 205.27L353.71 206.59L353.08 207.89L352.4 209.15L351.67 210.39L350.9 211.59L350.08 212.76L349.21 213.89L348.31 214.99L347.36 216.06L346.38 217.08L345.35 218.07L344.29 219.01L343.19 219.92L342.06 220.78L340.89 221.6L339.69 222.37L338.45 223.1L337.19 223.78L335.89 224.42L334.57 225L333.22 225.53L331.84 226.02L330.44 226.45L329.01 226.82L327.56 227.15L326.09 227.41L324.59 227.62L323.08 227.77L321.55 227.86L320 227.89L318.45 227.86L316.92 227.76L315.41 227.61L313.91 227.39L312.44 227.11L310.99 226.77L309.56 226.38L308.16 225.93L306.78 225.42L305.43 224.86L304.11 224.26L302.81 223.6L301.55 222.89L300.31 222.13L299.11 221.32L297.94 220.47L296.81 219.58L295.71 218.64L294.65 217.67L293.62 216.65L292.64 215.59L291.69 214.5L290.79 213.37L289.92 212.2L289.1 211L288.33 209.77L287.6 208.5L286.92 207.21L286.29 205.89L285.7 204.54L285.17 203.17L284.69 201.77L284.26 200.34L283.88 198.9L283.56 197.43L283.29 195.95L283.08 194.44L282.93 192.92L282.84 191.39L282.81 189.84L282.84 188.29L282.93 186.76L283.08 185.25L283.29 183.75L283.56 182.28L283.88 180.83L284.26 179.4L284.69 178L285.17 176.62L285.7 175.27L286.29 173.95L286.92 172.65L287.6 171.39L288.33 170.15L289.1 168.95L289.92 167.78L290.79 166.65L291.69 165.55L292.64 164.48L293.62 163.46L294.65 162.47L295.71 161.53L296.81 160.62L297.94 159.76L299.11 158.94L300.31 158.17L301.55 157.44L302.81 156.76L304.11 156.12L305.43 155.54L306.78 155.01L308.16 154.52L309.56 154.09L310.99 153.72L312.44 153.4L313.91 153.13L315.41 152.92L316.92 152.77L318.45 152.68L320 152.65L321.55 152.68L323.08 152.78ZM317.28 165.78L315.96 165.97L314.67 166.24L313.4 166.58L312.17 166.98L310.97 167.46L309.8 167.99L308.67 168.59L307.57 169.24L306.51 169.95L305.5 170.71L304.52 171.53L303.59 172.39L302.7 173.3L301.86 174.25L301.07 175.24L300.32 176.27L299.63 177.34L298.99 178.43L298.4 179.56L297.87 180.72L297.39 181.91L296.97 183.11L296.62 184.34L296.32 185.59L296.09 186.85L295.92 188.12L295.82 189.41L295.78 190.7L295.82 191.99L295.92 193.27L296.09 194.53L296.32 195.78L296.62 197L296.97 198.2L297.39 199.38L297.87 200.53L298.4 201.65L298.99 202.75L299.63 203.81L300.32 204.83L301.07 205.82L301.86 206.77L302.7 207.68L303.59 208.54L304.52 209.36L305.5 210.13L306.51 210.85L307.57 211.52L308.67 212.14L309.8 212.7L310.97 213.2L312.17 213.65L313.4 214.03L314.67 214.34L315.96 214.59L317.28 214.77L318.63 214.88L320 214.92L321.37 214.88L322.72 214.76L324.04 214.57L325.33 214.3L326.6 213.96L327.83 213.56L329.03 213.08L330.2 212.55L331.33 211.95L332.43 211.3L333.49 210.59L334.5 209.83L335.48 209.01L336.41 208.15L337.3 207.24L338.14 206.29L338.93 205.3L339.68 204.27L340.37 203.21L341.01 202.11L341.6 200.98L342.13 199.82L342.61 198.63L343.03 197.43L343.38 196.2L343.68 194.95L343.91 193.69L344.08 192.42L344.18 191.13L344.22 189.84L344.18 188.55L344.08 187.27L343.91 186.01L343.68 184.76L343.38 183.54L343.03 182.34L342.61 181.16L342.13 180.01L341.6 178.89L341.01 177.79L340.37 176.73L339.68 175.71L338.93 174.72L338.14 173.77L337.3 172.86L336.41 172L335.48 171.18L334.5 170.41L333.49 169.69L332.43 169.02L331.33 168.4L330.2 167.84L329.03 167.34L327.83 166.89L326.6 166.51L325.33 166.2L324.04 165.95L322.72 165.77L321.37 165.66L320 165.62L318.63 165.66L317.28 165.78Z" id="cguUlWlKw"></path><path d="M226.06 212.55L228.78 212.83L231.47 213.21L234.12 213.7L236.73 214.29L239.3 214.98L241.84 215.77L244.33 216.66L246.77 217.64L249.17 218.71L251.51 219.87L253.81 221.11L256.05 222.45L258.23 223.86L260.35 225.36L262.41 226.93L264.41 228.59L266.35 230.31L268.22 232.11L270.01 233.98L271.74 235.91L273.39 237.91L274.96 239.97L276.46 242.1L277.88 244.28L279.21 246.52L280.46 248.81L281.62 251.16L282.69 253.55L283.67 256L284.55 258.49L285.34 261.02L286.04 263.59L286.63 266.21L287.12 268.86L287.5 271.54L287.78 274.26L287.94 277.01L288 279.78L288 354.16L287.97 355.71L287.88 357.24L287.73 358.75L287.52 360.25L287.25 361.72L286.93 363.17L286.56 364.6L286.12 366L285.64 367.38L285.11 368.73L284.52 370.05L283.89 371.35L283.21 372.61L282.48 373.85L281.71 375.05L280.89 376.22L280.03 377.35L279.12 378.45L278.17 379.52L277.19 380.54L276.16 381.53L275.1 382.47L274 383.38L272.87 384.24L271.7 385.06L270.5 385.83L269.26 386.56L268 387.24L266.7 387.88L265.38 388.46L264.03 388.99L262.65 389.48L261.25 389.91L259.82 390.28L258.37 390.6L256.9 390.87L255.4 391.08L253.89 391.23L252.36 391.32L250.81 391.35L246.49 391.35L246.49 514.16L246.46 515.45L246.38 516.74L246.24 518.01L246.06 519.26L245.82 520.5L245.53 521.73L245.2 522.94L244.82 524.13L244.39 525.31L243.92 526.46L243.4 527.59L242.84 528.7L242.24 529.79L241.6 530.85L240.92 531.89L240.2 532.9L239.45 533.88L238.66 534.83L237.83 535.76L236.97 536.65L236.08 537.51L235.16 538.33L234.21 539.12L233.22 539.88L232.21 540.6L231.18 541.28L230.11 541.92L229.03 542.52L227.92 543.08L226.78 543.59L225.63 544.07L224.46 544.49L223.26 544.88L222.05 545.21L220.83 545.5L219.59 545.73L218.33 545.92L217.06 546.05L215.78 546.13L214.49 546.16L182.49 546.16L181.19 546.13L179.91 546.05L178.64 545.92L177.39 545.73L176.15 545.5L174.92 545.21L173.71 544.88L172.52 544.49L171.34 544.07L170.19 543.59L169.06 543.08L167.95 542.52L166.86 541.92L165.8 541.28L164.76 540.6L163.75 539.88L162.77 539.12L161.81 538.33L160.89 537.51L160 536.65L159.14 535.76L158.32 534.83L157.52 533.88L156.77 532.9L156.05 531.89L155.37 530.85L154.73 529.79L154.13 528.7L153.57 527.59L153.05 526.46L152.58 525.31L152.15 524.13L151.77 522.94L151.44 521.73L151.15 520.5L150.92 519.26L150.73 518.01L150.6 516.74L150.51 515.45L150.49 514.16L150.49 391.35L146.16 391.35L144.61 391.32L143.08 391.23L141.57 391.08L140.08 390.87L138.6 390.6L137.15 390.28L135.73 389.91L134.32 389.48L132.95 388.99L131.59 388.46L130.27 387.88L128.98 387.24L127.71 386.56L126.48 385.83L125.27 385.06L124.1 384.24L122.97 383.38L121.87 382.47L120.81 381.53L119.78 380.54L118.8 379.52L117.85 378.45L116.95 377.35L116.09 376.22L115.27 375.05L114.49 373.85L113.76 372.61L113.08 371.35L112.45 370.05L111.86 368.73L111.33 367.38L110.85 366L110.42 364.6L110.04 363.17L109.72 361.72L109.45 360.25L109.25 358.75L109.09 357.24L109 355.71L108.97 354.16L108.97 279.78L109.03 277.01L109.2 274.26L109.47 271.54L109.86 268.86L110.35 266.21L110.94 263.59L111.63 261.02L112.42 258.49L113.3 256L114.28 253.55L115.35 251.16L116.52 248.81L117.76 246.52L119.1 244.28L120.51 242.1L122.01 239.97L123.58 237.91L125.23 235.91L126.96 233.98L128.76 232.11L130.62 230.31L132.56 228.59L134.56 226.93L136.62 225.36L138.74 223.86L140.93 222.45L143.17 221.11L145.46 219.87L147.81 218.71L150.2 217.64L152.65 216.66L155.14 215.77L157.67 214.98L160.24 214.29L162.86 213.7L165.51 213.21L168.19 212.83L170.91 212.55L173.66 212.38L176.43 212.32L220.54 212.32L223.32 212.38L226.06 212.55ZM200.65 271.14L198.92 271.14L191.14 261.62L163.46 227.03L161.72 227.51L160 228.05L158.31 228.65L156.65 229.3L155.01 230L153.4 230.76L151.82 231.57L150.27 232.43L148.74 233.34L147.26 234.3L145.8 235.3L144.38 236.35L143 237.45L141.65 238.59L140.34 239.77L139.06 240.99L137.83 242.25L136.64 243.55L135.49 244.89L134.38 246.27L133.31 247.68L132.29 249.13L131.32 250.61L130.39 252.12L129.52 253.67L128.69 255.24L127.91 256.84L127.18 258.47L126.5 260.13L125.88 261.81L125.31 263.52L124.8 265.25L124.34 267L123.94 268.77L123.6 270.56L123.32 272.38L123.1 274.2L122.94 276.05L122.84 277.91L122.81 279.78L122.81 354.16L122.83 355.13L122.89 356.09L122.98 357.05L123.12 357.99L123.28 358.93L123.49 359.85L123.73 360.76L124 361.66L124.31 362.55L124.65 363.42L125.02 364.27L125.43 365.11L125.86 365.94L126.33 366.74L126.82 367.53L127.35 368.29L127.9 369.04L128.49 369.76L129.09 370.46L129.73 371.14L130.39 371.79L131.08 372.42L131.79 373.02L132.52 373.59L133.28 374.14L134.07 374.65L134.87 375.14L135.69 375.6L136.54 376.03L137.41 376.42L138.29 376.78L139.19 377.11L140.12 377.4L141.06 377.65L142.01 377.87L142.99 378.05L143.97 378.19L144.98 378.3L146 378.36L147.03 378.38L151.35 378.38L151.35 318.7L164.32 318.7L164.32 515.03L164.34 515.8L164.39 516.57L164.47 517.33L164.58 518.08L164.72 518.82L164.88 519.56L165.08 520.28L165.31 520.99L165.56 521.69L165.84 522.38L166.14 523.05L166.47 523.71L166.83 524.36L167.21 524.99L167.61 525.61L168.03 526.21L168.48 526.79L168.95 527.36L169.44 527.9L169.95 528.43L170.47 528.94L171.02 529.43L171.59 529.9L172.17 530.35L172.77 530.77L173.39 531.17L174.02 531.55L174.66 531.91L175.33 532.24L176 532.54L176.69 532.82L177.39 533.07L178.1 533.3L178.82 533.49L179.55 533.66L180.3 533.8L181.05 533.91L181.81 533.99L182.58 534.04L183.35 534.05L192 534.05L192 418.16L192 417.84L192.02 417.53L192.04 417.22L192.08 416.92L192.12 416.62L192.17 416.34L192.23 416.06L192.3 415.78L192.38 415.52L192.47 415.26L192.57 415.01L192.68 414.76L192.79 414.52L192.92 414.29L193.05 414.07L193.19 413.86L193.34 413.65L193.5 413.45L193.66 413.26L193.84 413.08L194.02 412.91L194.21 412.74L194.41 412.58L194.62 412.43L194.83 412.29L195.05 412.16L195.28 412.04L195.52 411.92L195.76 411.81L196.01 411.72L196.27 411.63L196.54 411.55L196.81 411.48L197.09 411.42L197.38 411.36L197.67 411.32L197.98 411.29L198.28 411.26L198.6 411.25L198.92 411.24L199.24 411.25L199.55 411.27L199.86 411.3L200.16 411.34L200.46 411.4L200.75 411.47L201.03 411.54L201.3 411.63L201.57 411.73L201.82 411.84L202.08 411.96L202.32 412.08L202.56 412.22L202.79 412.37L203.01 412.52L203.22 412.68L203.43 412.85L203.63 413.03L203.82 413.21L204 413.41L204.17 413.6L204.34 413.81L204.5 414.02L204.65 414.23L204.79 414.45L204.92 414.68L205.05 414.91L205.16 415.14L205.27 415.38L205.36 415.62L205.45 415.87L205.53 416.11L205.6 416.36L205.67 416.62L205.72 416.87L205.76 417.13L205.79 417.39L205.82 417.64L205.83 417.9L205.84 418.16L205.84 533.19L214.49 533.19L215.26 533.17L216.03 533.13L216.79 533.05L217.54 532.94L218.28 532.8L219.02 532.63L219.74 532.43L220.45 532.21L221.15 531.95L221.84 531.68L222.51 531.37L223.17 531.04L223.82 530.69L224.45 530.31L225.07 529.91L225.67 529.48L226.25 529.03L226.82 528.57L227.36 528.08L227.89 527.57L228.4 527.04L228.89 526.49L229.36 525.93L229.8 525.34L230.23 524.74L230.63 524.13L231.01 523.5L231.37 522.85L231.7 522.19L232 521.51L232.28 520.83L232.53 520.13L232.76 519.41L232.95 518.69L233.12 517.96L233.26 517.22L233.37 516.47L233.45 515.71L233.5 514.94L233.51 514.16L233.51 318.7L246.49 318.7L246.49 378.38L250.81 378.38L251.78 378.36L252.74 378.3L253.7 378.21L254.64 378.07L255.58 377.91L256.5 377.7L257.41 377.46L258.31 377.19L259.2 376.88L260.07 376.54L260.92 376.17L261.76 375.76L262.58 375.33L263.39 374.86L264.17 374.36L264.94 373.84L265.68 373.29L266.41 372.7L267.11 372.1L267.78 371.46L268.44 370.8L269.06 370.11L269.66 369.4L270.24 368.66L270.79 367.91L271.3 367.12L271.79 366.32L272.25 365.5L272.67 364.65L273.07 363.78L273.43 362.9L273.75 361.99L274.05 361.07L274.3 360.13L274.52 359.18L274.7 358.2L274.84 357.21L274.94 356.21L275.01 355.19L275.03 354.16L276.76 354.16L276.76 279.78L276.72 277.91L276.63 276.05L276.47 274.2L276.25 272.38L275.97 270.56L275.63 268.77L275.23 267L274.77 265.25L274.26 263.52L273.69 261.81L273.07 260.13L272.39 258.47L271.66 256.84L270.88 255.24L270.05 253.67L269.17 252.12L268.25 250.61L267.27 249.13L266.25 247.68L265.19 246.27L264.08 244.89L262.93 243.55L261.74 242.25L260.5 240.99L259.23 239.77L257.92 238.59L256.57 237.45L255.19 236.35L253.77 235.3L252.31 234.3L250.82 233.34L249.3 232.43L247.75 231.57L246.17 230.76L244.56 230L242.92 229.3L241.26 228.65L239.56 228.05L237.85 227.51L236.11 227.03L208.43 261.62L200.65 271.14ZM198.92 251.24L219.68 225.3L178.16 225.3L198.92 251.24Z" id="h1O7fGL37z"></path><path d="M96 431.14C95.94 431.14 95.65 431.14 95.14 431.14L95.14 392.22L82.16 392.22L82.16 431.14L82.16 444.11C82.16 491.85 82.16 518.37 82.16 523.68C82.16 529.73 77.84 534.05 71.78 534.05C71.5 534.05 70.05 534.05 67.46 534.05C67.46 489.43 67.46 464.63 67.46 459.68C67.46 456.22 64.86 452.76 60.54 452.76C56.22 452.76 53.62 455.35 53.62 459.68C53.62 464.63 53.62 489.43 53.62 534.05C52.06 534.05 51.2 534.05 51.03 534.05C44.97 534.05 40.65 529.73 40.65 523.68C40.65 518.37 40.65 491.85 40.65 444.11L40.65 431.14L40.65 392.22L27.68 392.22L27.68 431.14C27.16 431.14 26.87 431.14 26.81 431.14C19.03 431.14 12.97 425.08 12.97 417.3C12.97 412.37 12.97 372.93 12.97 368C12.97 348.97 28.54 334.27 46.7 334.27C49.64 334.27 73.17 334.27 76.11 334.27C83.89 334.27 90.81 336.86 96.86 341.19C96.86 339.63 96.86 327.18 96.86 325.62C90.81 322.16 83.89 320.43 76.11 320.43C73.17 320.43 49.64 320.43 46.7 320.43C20.76 320.43 0 341.19 0 367.14C0 372.06 0 411.5 0 416.43C0 431.14 12.11 443.24 26.81 443.24C26.87 443.24 27.16 443.24 27.68 443.24C27.68 490.98 27.68 517.51 27.68 522.81C27.68 535.78 38.05 546.16 51.03 546.16C53.1 546.16 69.71 546.16 71.78 546.16C84.76 546.16 95.14 535.78 95.14 522.81C95.14 517.51 95.14 490.98 95.14 443.24C95.65 443.24 95.94 443.24 96 443.24C110.7 443.24 122.81 431.14 122.81 416.43C122.81 414.53 122.81 399.31 122.81 397.41C117.62 394.81 113.3 391.35 109.84 387.03C109.84 389.05 109.84 399.14 109.84 417.3C105.8 426.52 101.19 431.14 96 431.14Z" id="a34mVU8WCT"></path><path d="M582.54 238.39L584.05 238.54L585.54 238.75L587.02 239.02L588.47 239.34L589.89 239.72L591.3 240.15L592.68 240.63L594.03 241.16L595.35 241.75L596.65 242.38L597.91 243.06L599.15 243.79L600.35 244.56L601.52 245.38L602.65 246.25L603.75 247.15L604.81 248.1L605.84 249.08L606.82 250.11L607.77 251.17L608.67 252.27L609.54 253.4L610.35 254.57L611.13 255.77L611.86 257.01L612.54 258.27L613.17 259.57L613.76 260.89L614.29 262.24L614.77 263.62L615.2 265.02L615.58 266.45L615.9 267.9L616.17 269.37L616.38 270.87L616.53 272.38L616.62 273.91L616.65 275.46L616.62 277.01L616.53 278.54L616.38 280.05L616.17 281.54L615.9 283.02L615.58 284.47L615.2 285.89L614.77 287.3L614.29 288.68L613.76 290.03L613.17 291.35L612.54 292.65L611.86 293.91L611.13 295.15L610.35 296.35L609.54 297.52L608.67 298.65L607.77 299.75L606.82 300.81L605.84 301.84L604.81 302.82L603.75 303.77L602.65 304.67L601.52 305.54L600.35 306.35L599.15 307.13L597.91 307.86L596.65 308.54L595.35 309.17L594.03 309.76L592.68 310.29L591.3 310.77L589.89 311.2L588.47 311.58L587.02 311.9L585.54 312.17L584.05 312.38L582.54 312.53L581.01 312.62L579.46 312.65L577.91 312.62L576.38 312.53L574.87 312.38L573.37 312.17L571.9 311.9L570.45 311.58L569.02 311.2L567.62 310.77L566.24 310.29L564.89 309.76L563.57 309.17L562.27 308.54L561.01 307.86L559.77 307.13L558.57 306.35L557.4 305.54L556.27 304.67L555.17 303.77L554.11 302.82L553.08 301.84L552.1 300.81L551.15 299.75L550.25 298.65L549.38 297.52L548.56 296.35L547.79 295.15L547.06 293.91L546.38 292.65L545.75 291.35L545.16 290.03L544.63 288.68L544.15 287.3L543.72 285.89L543.34 284.47L543.02 283.02L542.75 281.54L542.54 280.05L542.39 278.54L542.3 277.01L542.27 275.46L542.3 273.91L542.39 272.38L542.54 270.87L542.75 269.37L543.02 267.9L543.34 266.45L543.72 265.02L544.15 263.62L544.63 262.24L545.16 260.89L545.75 259.57L546.38 258.27L547.06 257.01L547.79 255.77L548.56 254.57L549.38 253.4L550.25 252.27L551.15 251.17L552.1 250.11L553.08 249.08L554.11 248.1L555.17 247.15L556.27 246.25L557.4 245.38L558.57 244.56L559.77 243.79L561.01 243.06L562.27 242.38L563.57 241.75L564.89 241.16L566.24 240.63L567.62 240.15L569.02 239.72L570.45 239.34L571.9 239.02L573.37 238.75L574.87 238.54L576.38 238.39L577.91 238.3L579.46 238.27L581.01 238.3L582.54 238.39ZM576.89 251.39L575.63 251.57L574.39 251.82L573.16 252.14L571.96 252.52L570.78 252.96L569.63 253.46L568.51 254.02L567.42 254.64L566.36 255.31L565.33 256.03L564.34 256.8L563.39 257.62L562.49 258.49L561.62 259.39L560.8 260.34L560.03 261.33L559.31 262.36L558.64 263.42L558.02 264.51L557.46 265.63L556.96 266.78L556.52 267.96L556.14 269.16L555.82 270.39L555.57 271.63L555.39 272.89L555.28 274.17L555.24 275.46L555.28 276.75L555.39 278.03L555.57 279.29L555.82 280.53L556.14 281.76L556.52 282.96L556.96 284.14L557.46 285.29L558.02 286.41L558.64 287.5L559.31 288.56L560.03 289.59L560.8 290.58L561.62 291.52L562.49 292.43L563.39 293.3L564.34 294.12L565.33 294.89L566.36 295.61L567.42 296.28L568.51 296.9L569.63 297.46L570.78 297.96L571.96 298.4L573.16 298.78L574.39 299.1L575.63 299.35L576.89 299.53L578.17 299.64L579.46 299.68L580.75 299.64L582.03 299.54L583.29 299.37L584.53 299.14L585.76 298.84L586.96 298.49L588.14 298.07L589.29 297.59L590.41 297.06L591.5 296.47L592.56 295.83L593.59 295.14L594.58 294.39L595.52 293.6L596.43 292.76L597.3 291.87L598.12 290.94L598.89 289.96L599.61 288.94L600.28 287.89L600.9 286.79L601.46 285.66L601.96 284.49L602.4 283.29L602.78 282.06L603.1 280.79L603.35 279.5L603.53 278.18L603.64 276.83L603.68 275.46L603.64 274.17L603.53 272.89L603.35 271.63L603.1 270.39L602.78 269.16L602.4 267.96L601.96 266.78L601.46 265.63L600.9 264.51L600.28 263.42L599.61 262.36L598.89 261.33L598.12 260.34L597.3 259.39L596.43 258.49L595.52 257.62L594.58 256.8L593.59 256.03L592.56 255.31L591.5 254.64L590.41 254.02L589.29 253.46L588.14 252.96L586.96 252.52L585.76 252.14L584.53 251.82L583.29 251.57L582.03 251.39L580.75 251.28L579.46 251.24L578.17 251.28L576.89 251.39Z" id="b33tlqdBE"></path><path d="M203.29 94.02L205.44 94.24L207.57 94.54L209.67 94.93L211.74 95.41L213.78 95.96L215.79 96.58L217.76 97.29L219.7 98.07L221.61 98.92L223.47 99.84L225.29 100.83L227.07 101.88L228.81 103.01L230.5 104.19L232.14 105.43L233.73 106.74L235.27 108.1L236.76 109.51L238.19 110.98L239.56 112.5L240.88 114.08L242.13 115.69L243.33 117.36L244.46 119.07L245.52 120.82L246.52 122.61L247.44 124.44L248.3 126.31L249.08 128.21L249.79 130.15L250.42 132.11L250.97 134.11L251.44 136.13L251.83 138.18L252.14 140.25L252.36 142.35L252.5 144.46L252.54 146.59L252.5 148.79L252.36 150.96L252.14 153.12L251.83 155.24L251.44 157.34L250.97 159.41L250.42 161.45L249.79 163.46L249.08 165.44L248.3 167.38L247.44 169.28L246.52 171.14L245.52 172.97L244.46 174.75L243.33 176.48L242.13 178.17L240.88 179.81L239.56 181.41L238.19 182.95L236.76 184.43L235.27 185.86L233.73 187.24L232.14 188.55L230.5 189.81L228.81 191L227.07 192.13L225.29 193.2L223.47 194.19L221.61 195.12L219.7 195.97L217.76 196.76L215.79 197.46L213.78 198.09L211.74 198.65L209.67 199.12L207.57 199.51L205.44 199.82L203.29 200.04L201.11 200.17L198.92 200.22L196.72 200.17L194.55 200.04L192.4 199.83L190.27 199.53L188.17 199.16L186.1 198.7L184.06 198.16L182.05 197.55L180.08 196.87L178.14 196.11L176.23 195.28L174.37 194.38L172.55 193.41L170.77 192.38L169.03 191.28L167.34 190.11L165.7 188.89L164.11 187.61L162.57 186.26L161.08 184.86L159.65 183.41L158.27 181.9L156.96 180.34L155.7 178.73L154.51 177.07L153.38 175.37L152.32 173.62L151.32 171.82L150.4 169.99L149.54 168.11L148.76 166.19L148.05 164.24L147.42 162.25L146.87 160.22L146.4 158.17L146 156.08L145.7 153.97L145.48 151.82L145.34 149.65L145.3 147.46L145.34 145.26L145.48 143.09L145.7 140.94L146 138.81L146.4 136.71L146.87 134.64L147.42 132.6L148.05 130.59L148.76 128.62L149.54 126.68L150.4 124.77L151.32 122.91L152.32 121.09L153.38 119.31L154.51 117.57L155.7 115.88L156.96 114.24L158.27 112.65L159.65 111.11L161.08 109.62L162.57 108.19L164.11 106.82L165.7 105.5L167.34 104.24L169.03 103.05L170.77 101.92L172.55 100.86L174.37 99.86L176.23 98.94L178.14 98.08L180.08 97.3L182.05 96.59L184.06 95.96L186.1 95.41L188.17 94.94L190.27 94.55L192.4 94.24L194.55 94.02L196.72 93.88L198.92 93.84L201.11 93.88L203.29 94.02ZM195.58 106.95L193.94 107.11L192.32 107.34L190.72 107.64L189.14 107.99L187.58 108.41L186.06 108.88L184.55 109.41L183.08 110L181.64 110.64L180.22 111.34L178.84 112.09L177.49 112.89L176.18 113.74L174.9 114.64L173.65 115.59L172.45 116.58L171.29 117.62L170.16 118.7L169.08 119.83L168.04 120.99L167.05 122.19L166.1 123.44L165.2 124.72L164.35 126.03L163.55 127.38L162.8 128.76L162.1 130.18L161.46 131.62L160.87 133.1L160.34 134.6L159.86 136.13L159.45 137.68L159.09 139.26L158.8 140.86L158.57 142.48L158.4 144.12L158.3 145.78L158.27 147.46L158.3 149.14L158.4 150.8L158.57 152.44L158.8 154.06L159.09 155.66L159.45 157.24L159.86 158.79L160.34 160.32L160.87 161.82L161.46 163.3L162.1 164.74L162.8 166.16L163.55 167.54L164.35 168.89L165.2 170.2L166.1 171.48L167.05 172.72L168.04 173.93L169.08 175.09L170.16 176.22L171.29 177.3L172.45 178.34L173.65 179.33L174.9 180.28L176.18 181.18L177.49 182.03L178.84 182.83L180.22 183.58L181.64 184.28L183.08 184.92L184.55 185.51L186.06 186.04L187.58 186.51L189.14 186.93L190.72 187.28L192.32 187.58L193.94 187.81L195.58 187.97L197.24 188.07L198.92 188.11L200.6 188.07L202.26 187.97L203.9 187.81L205.52 187.58L207.12 187.28L208.7 186.93L210.25 186.51L211.78 186.04L213.28 185.51L214.76 184.92L216.2 184.28L217.62 183.58L219 182.83L220.35 182.03L221.66 181.18L222.94 180.28L224.18 179.33L225.39 178.34L226.55 177.3L227.68 176.22L228.76 175.09L229.8 173.93L230.79 172.72L231.74 171.48L232.64 170.2L233.49 168.89L234.29 167.54L235.04 166.16L235.73 164.74L236.38 163.3L236.97 161.82L237.5 160.32L237.97 158.79L238.39 157.24L238.74 155.66L239.04 154.06L239.27 152.44L239.43 150.8L239.53 149.14L239.57 147.46L239.53 145.78L239.43 144.12L239.27 142.48L239.04 140.86L238.74 139.26L238.39 137.68L237.97 136.13L237.5 134.6L236.97 133.1L236.38 131.62L235.73 130.18L235.04 128.76L234.29 127.38L233.49 126.03L232.64 124.72L231.74 123.44L230.79 122.19L229.8 120.99L228.76 119.83L227.68 118.7L226.55 117.62L225.39 116.58L224.18 115.59L222.94 114.64L221.66 113.74L220.35 112.89L219 112.09L217.62 111.34L216.2 110.64L214.76 110L213.28 109.41L211.78 108.88L210.25 108.41L208.7 107.99L207.12 107.64L205.52 107.34L203.9 107.11L202.26 106.95L200.6 106.84L198.92 106.81L197.24 106.84L195.58 106.95Z" id="f1mogKtykN"></path><path d="M445.45 94.02L447.6 94.24L449.73 94.54L451.83 94.93L453.9 95.41L455.94 95.96L457.95 96.58L459.92 97.29L461.86 98.07L463.77 98.92L465.63 99.84L467.45 100.83L469.23 101.88L470.97 103.01L472.66 104.19L474.3 105.43L475.89 106.74L477.43 108.1L478.92 109.51L480.35 110.98L481.73 112.5L483.04 114.08L484.3 115.69L485.49 117.36L486.62 119.07L487.68 120.82L488.68 122.61L489.6 124.44L490.46 126.31L491.24 128.21L491.95 130.15L492.58 132.11L493.13 134.11L493.6 136.13L494 138.18L494.3 140.25L494.52 142.35L494.66 144.46L494.7 146.59L494.66 148.79L494.52 150.96L494.3 153.12L494 155.24L493.6 157.34L493.13 159.41L492.58 161.45L491.95 163.46L491.24 165.44L490.46 167.38L489.6 169.28L488.68 171.14L487.68 172.97L486.62 174.75L485.49 176.48L484.3 178.17L483.04 179.81L481.73 181.41L480.35 182.95L478.92 184.43L477.43 185.86L475.89 187.24L474.3 188.55L472.66 189.81L470.97 191L469.23 192.13L467.45 193.2L465.63 194.19L463.77 195.12L461.86 195.97L459.92 196.76L457.95 197.46L455.94 198.09L453.9 198.65L451.83 199.12L449.73 199.51L447.6 199.82L445.45 200.04L443.28 200.17L441.08 200.22L438.89 200.17L436.71 200.04L434.56 199.83L432.43 199.53L430.33 199.16L428.26 198.7L426.22 198.16L424.21 197.55L422.24 196.87L420.3 196.11L418.39 195.28L416.53 194.38L414.71 193.41L412.93 192.38L411.19 191.28L409.5 190.11L407.86 188.89L406.27 187.61L404.73 186.26L403.24 184.86L401.81 183.41L400.44 181.9L399.12 180.34L397.87 178.73L396.67 177.07L395.54 175.37L394.48 173.62L393.48 171.82L392.56 169.99L391.7 168.11L390.92 166.19L390.21 164.24L389.58 162.25L389.03 160.22L388.56 158.17L388.17 156.08L387.86 153.97L387.64 151.82L387.5 149.65L387.46 147.46L387.5 145.26L387.64 143.09L387.86 140.94L388.17 138.81L388.56 136.71L389.03 134.64L389.58 132.6L390.21 130.59L390.92 128.62L391.7 126.68L392.56 124.77L393.48 122.91L394.48 121.09L395.54 119.31L396.67 117.57L397.87 115.88L399.12 114.24L400.44 112.65L401.81 111.11L403.24 109.62L404.73 108.19L406.27 106.82L407.86 105.5L409.5 104.24L411.19 103.05L412.93 101.92L414.71 100.86L416.53 99.86L418.39 98.94L420.3 98.08L422.24 97.3L424.21 96.59L426.22 95.96L428.26 95.41L430.33 94.94L432.43 94.55L434.56 94.24L436.71 94.02L438.89 93.88L441.08 93.84L443.28 93.88L445.45 94.02ZM437.74 106.95L436.1 107.11L434.48 107.34L432.88 107.64L431.3 107.99L429.75 108.41L428.22 108.88L426.72 109.41L425.24 110L423.8 110.64L422.38 111.34L421 112.09L419.65 112.89L418.34 113.74L417.06 114.64L415.82 115.59L414.61 116.58L413.45 117.62L412.32 118.7L411.24 119.83L410.2 120.99L409.21 122.19L408.26 123.44L407.36 124.72L406.51 126.03L405.71 127.38L404.96 128.76L404.27 130.18L403.62 131.62L403.03 133.1L402.5 134.6L402.03 136.13L401.61 137.68L401.26 139.26L400.96 140.86L400.73 142.48L400.57 144.12L400.47 145.78L400.43 147.46L400.47 149.14L400.57 150.8L400.73 152.44L400.96 154.06L401.26 155.66L401.61 157.24L402.03 158.79L402.5 160.32L403.03 161.82L403.62 163.3L404.27 164.74L404.96 166.16L405.71 167.54L406.51 168.89L407.36 170.2L408.26 171.48L409.21 172.72L410.2 173.93L411.24 175.09L412.32 176.22L413.45 177.3L414.61 178.34L415.82 179.33L417.06 180.28L418.34 181.18L419.65 182.03L421 182.83L422.38 183.58L423.8 184.28L425.24 184.92L426.72 185.51L428.22 186.04L429.75 186.51L431.3 186.93L432.88 187.28L434.48 187.58L436.1 187.81L437.74 187.97L439.4 188.07L441.08 188.11L442.76 188.07L444.42 187.97L446.06 187.81L447.68 187.58L449.28 187.28L450.86 186.93L452.42 186.51L453.94 186.04L455.45 185.51L456.92 184.92L458.36 184.28L459.78 183.58L461.16 182.83L462.51 182.03L463.82 181.18L465.1 180.28L466.35 179.33L467.55 178.34L468.71 177.3L469.84 176.22L470.92 175.09L471.96 173.93L472.95 172.72L473.9 171.48L474.8 170.2L475.65 168.89L476.45 167.54L477.2 166.16L477.9 164.74L478.54 163.3L479.13 161.82L479.66 160.32L480.14 158.79L480.55 157.24L480.91 155.66L481.2 154.06L481.43 152.44L481.6 150.8L481.7 149.14L481.73 147.46L481.7 145.78L481.6 144.12L481.43 142.48L481.2 140.86L480.91 139.26L480.55 137.68L480.14 136.13L479.66 134.6L479.13 133.1L478.54 131.62L477.9 130.18L477.2 128.76L476.45 127.38L475.65 126.03L474.8 124.72L473.9 123.44L472.95 122.19L471.96 120.99L470.92 119.83L469.84 118.7L468.71 117.62L467.55 116.58L466.35 115.59L465.1 114.64L463.82 113.74L462.51 112.89L461.16 112.09L459.78 111.34L458.36 110.64L456.92 110L455.45 109.41L453.94 108.88L452.42 108.41L450.86 107.99L449.28 107.64L447.68 107.34L446.06 107.11L444.42 106.95L442.76 106.84L441.08 106.81L439.4 106.84L437.74 106.95Z" id="dRckd1ToG"></path><path d="M469.09 212.55L471.81 212.83L474.49 213.21L477.14 213.7L479.76 214.29L482.33 214.98L484.86 215.77L487.35 216.66L489.8 217.64L492.19 218.71L494.54 219.87L496.83 221.11L499.07 222.45L501.26 223.86L503.38 225.36L505.44 226.93L507.44 228.59L509.38 230.31L511.24 232.11L513.04 233.98L514.77 235.91L516.42 237.91L517.99 239.97L519.49 242.1L520.9 244.28L522.24 246.52L523.48 248.81L524.65 251.16L525.72 253.55L526.7 256L527.58 258.49L528.37 261.02L529.06 263.59L529.65 266.21L530.14 268.86L530.53 271.54L530.8 274.26L530.97 277.01L531.03 279.78L531.03 345.51L531.04 347.89L531.09 350.22L531.17 352.5L531.27 354.73L531.41 356.91L531.57 359.05L531.76 361.14L531.97 363.18L532.2 365.18L532.46 367.14L532.74 369.04L533.04 370.9L533.35 372.72L533.69 374.49L534.04 376.22L534.4 377.91L534.78 379.55L535.18 381.15L535.58 382.7L536 384.22L536.43 385.69L536.86 387.12L537.3 388.5L537.75 389.85L538.21 391.16L538.66 392.42L539.12 393.65L539.59 394.83L540.05 395.98L540.51 397.08L540.97 398.15L541.43 399.18L541.89 400.17L542.34 401.12L542.78 402.03L543.22 402.91L543.64 403.75L544.06 404.56L544.47 405.32L544.86 406.05L545.06 406.51L545.25 406.96L545.45 407.4L545.64 407.84L545.82 408.28L546.01 408.72L546.19 409.15L546.37 409.58L546.54 410.01L546.7 410.43L546.86 410.85L547.01 411.27L547.16 411.68L547.29 412.09L547.42 412.5L547.54 412.9L547.64 413.3L547.74 413.7L547.82 414.1L547.89 414.49L547.95 414.87L547.99 415.26L548.03 415.64L548.04 416.02L548.04 416.39L548.02 416.76L547.99 417.13L547.94 417.5L547.87 417.86L547.78 418.22L547.68 418.57L547.55 418.92L547.4 419.27L547.23 419.62L547.04 419.96L546.83 420.3L546.59 420.63L546.33 420.97L546.04 421.3L545.73 421.62L545.53 421.94L545.32 422.24L545.1 422.52L544.88 422.79L544.65 423.05L544.4 423.29L544.16 423.52L543.9 423.73L543.64 423.93L543.38 424.12L543.11 424.3L542.83 424.46L542.56 424.62L542.27 424.76L541.99 424.89L541.7 425.01L541.41 425.12L541.12 425.23L540.83 425.32L540.54 425.41L540.25 425.48L539.96 425.55L539.67 425.61L539.38 425.67L539.09 425.72L538.81 425.76L538.53 425.8L538.25 425.83L537.97 425.86L537.7 425.88L537.44 425.9L537.18 425.91L536.92 425.92L536.68 425.93L536.44 425.94L536.2 425.94L535.98 425.94L535.76 425.95L535.55 425.95L535.35 425.95L487.78 425.95L487.78 514.16L487.76 515.45L487.68 516.74L487.54 518.01L487.35 519.26L487.12 520.5L486.83 521.73L486.5 522.94L486.12 524.13L485.69 525.31L485.22 526.46L484.7 527.59L484.14 528.7L483.54 529.79L482.9 530.85L482.22 531.89L481.5 532.9L480.75 533.88L479.96 534.83L479.13 535.76L478.27 536.65L477.38 537.51L476.46 538.33L475.5 539.12L474.52 539.88L473.51 540.6L472.47 541.28L471.41 541.92L470.32 542.52L469.21 543.08L468.08 543.59L466.93 544.07L465.75 544.49L464.56 544.88L463.35 545.21L462.13 545.5L460.88 545.73L459.63 545.92L458.36 546.05L457.08 546.13L455.78 546.16L424.65 546.16L423.36 546.13L422.08 546.05L420.81 545.92L419.55 545.73L418.31 545.5L417.08 545.21L415.87 544.88L414.68 544.49L413.5 544.07L412.35 543.59L411.22 543.08L410.11 542.52L409.02 541.92L407.96 541.28L406.92 540.6L405.91 539.88L404.93 539.12L403.98 538.33L403.05 537.51L402.16 536.65L401.3 535.76L400.48 534.83L399.69 533.88L398.93 532.9L398.21 531.89L397.53 530.85L396.89 529.79L396.29 528.7L395.73 527.59L395.22 526.46L394.74 525.31L394.32 524.13L393.93 522.94L393.6 521.73L393.31 520.5L393.08 519.26L392.89 518.01L392.76 516.74L392.68 515.45L392.65 514.16L392.65 425.95L345.08 425.95L344.88 425.95L344.67 425.95L344.46 425.94L344.23 425.94L344 425.94L343.76 425.93L343.51 425.92L343.25 425.91L342.99 425.9L342.73 425.88L342.46 425.86L342.19 425.83L341.91 425.8L341.63 425.76L341.34 425.72L341.05 425.67L340.77 425.61L340.48 425.55L340.18 425.48L339.89 425.41L339.6 425.32L339.31 425.23L339.02 425.12L338.73 425.01L338.44 424.89L338.16 424.76L337.88 424.62L337.6 424.46L337.32 424.3L337.05 424.12L336.79 423.93L336.53 423.73L336.28 423.52L336.03 423.29L335.79 423.05L335.55 422.79L335.33 422.52L335.11 422.24L334.9 421.94L334.7 421.62L334.52 421.23L334.35 420.85L334.19 420.47L334.05 420.09L333.93 419.71L333.82 419.34L333.72 418.96L333.64 418.59L333.58 418.22L333.53 417.85L333.49 417.48L333.47 417.11L333.45 416.75L333.46 416.38L333.47 416.01L333.5 415.64L333.54 415.27L333.59 414.91L333.65 414.53L333.73 414.16L333.82 413.79L333.91 413.41L334.02 413.03L334.14 412.65L334.27 412.27L334.41 411.89L334.56 411.5L334.72 411.11L334.89 410.71L335.07 410.31L335.25 409.91L335.45 409.5L335.65 409.09L335.87 408.67L336.09 408.25L336.31 407.82L336.55 407.39L336.79 406.95L337.04 406.5L337.3 406.05L337.69 405.32L338.1 404.56L338.52 403.77L338.95 402.93L339.38 402.07L339.83 401.17L340.27 400.23L340.73 399.26L341.19 398.25L341.65 397.2L342.11 396.12L342.57 394.99L343.04 393.83L343.5 392.63L343.96 391.38L344.41 390.1L344.86 388.77L345.3 387.41L345.74 385.99L346.16 384.54L346.58 383.04L346.98 381.5L347.38 379.91L347.76 378.28L348.13 376.6L348.48 374.88L348.81 373.11L349.13 371.29L349.42 369.42L349.7 367.5L349.96 365.53L350.19 363.52L350.41 361.45L350.59 359.33L350.75 357.16L350.89 354.94L350.99 352.66L351.07 350.33L351.12 347.95L351.14 345.51L351.14 279.78L351.19 277.01L351.36 274.26L351.64 271.54L352.02 268.86L352.51 266.21L353.1 263.59L353.79 261.02L354.58 258.49L355.47 256L356.45 253.55L357.52 251.16L358.68 248.81L359.93 246.52L361.26 244.28L362.67 242.1L364.17 239.97L365.75 237.91L367.4 235.91L369.12 233.98L370.92 232.11L372.79 230.31L374.72 228.59L376.72 226.93L378.78 225.36L380.91 223.86L383.09 222.45L385.33 221.11L387.62 219.87L389.97 218.71L392.36 217.64L394.81 216.66L397.3 215.77L399.83 214.98L402.41 214.29L405.02 213.7L407.67 213.21L410.35 212.83L413.07 212.55L415.82 212.38L418.59 212.32L463.57 212.32L466.34 212.38L469.09 212.55ZM407.35 514.16L407.37 514.94L407.42 515.71L407.49 516.47L407.6 517.22L407.74 517.96L407.91 518.69L408.11 519.41L408.33 520.13L408.59 520.83L408.86 521.51L409.17 522.19L409.5 522.85L409.85 523.5L410.23 524.13L410.64 524.74L411.06 525.34L411.51 525.93L411.97 526.49L412.46 527.04L412.97 527.57L413.5 528.08L414.05 528.57L414.61 529.03L415.2 529.48L415.8 529.91L416.41 530.31L417.05 530.69L417.69 531.04L418.35 531.37L419.03 531.68L419.71 531.95L420.41 532.21L421.13 532.43L421.85 532.63L422.58 532.8L423.32 532.94L424.08 533.05L424.84 533.13L425.6 533.17L426.38 533.19L435.03 533.19L435.03 454.49L448 454.49L448 533.19L456.65 533.19L457.42 533.17L458.19 533.13L458.95 533.05L459.7 532.94L460.45 532.8L461.18 532.63L461.9 532.43L462.61 532.21L463.31 531.95L464 531.68L464.67 531.37L465.34 531.04L465.98 530.69L466.61 530.31L467.23 529.91L467.83 529.48L468.41 529.03L468.98 528.57L469.53 528.08L470.05 527.57L470.56 527.04L471.05 526.49L471.52 525.93L471.97 525.34L472.39 524.74L472.79 524.13L473.17 523.5L473.53 522.85L473.86 522.19L474.16 521.51L474.44 520.83L474.69 520.13L474.92 519.41L475.12 518.69L475.28 517.96L475.42 517.22L475.53 516.47L475.61 515.71L475.66 514.94L475.68 514.16L475.68 443.24L476.54 443.24L476.54 425.95L407.35 425.95L407.35 514.16ZM417.2 225.34L414.97 225.48L412.76 225.7L410.58 226.01L408.43 226.4L406.31 226.87L404.22 227.42L402.17 228.06L400.15 228.77L398.18 229.55L396.24 230.41L394.34 231.35L392.49 232.35L390.68 233.42L388.92 234.56L387.2 235.76L385.54 237.03L383.93 238.35L382.37 239.74L380.86 241.19L379.42 242.69L378.03 244.25L376.7 245.86L375.43 247.53L374.23 249.24L373.09 251L372.02 252.81L371.02 254.67L370.09 256.56L369.23 258.5L368.44 260.48L367.73 262.49L367.1 264.55L366.55 266.63L366.07 268.75L365.68 270.9L365.37 273.08L365.15 275.29L365.02 277.53L364.97 279.78L364.97 345.51L364.95 348.15L364.9 350.72L364.8 353.25L364.68 355.71L364.52 358.13L364.32 360.49L364.1 362.8L363.85 365.06L363.57 367.26L363.27 369.42L362.94 371.52L362.59 373.57L362.22 375.58L361.83 377.53L361.42 379.43L360.99 381.28L360.54 383.09L360.09 384.85L359.62 386.55L359.14 388.22L358.64 389.83L358.14 391.4L357.64 392.92L357.13 394.4L356.61 395.83L356.09 397.21L355.57 398.55L355.06 399.85L354.54 401.1L354.03 402.31L353.52 403.48L353.02 404.6L352.52 405.68L352.04 406.72L351.56 407.72L351.1 408.68L350.65 409.6L350.22 410.47L349.8 411.31L349.41 412.11L349.34 412.11L349.28 412.11L349.23 412.12L349.17 412.13L349.12 412.15L349.07 412.16L349.03 412.18L348.98 412.2L348.94 412.22L348.91 412.24L348.87 412.27L348.84 412.29L348.81 412.32L348.78 412.35L348.75 412.38L348.73 412.41L348.7 412.44L348.68 412.48L348.67 412.51L348.65 412.54L348.63 412.57L348.62 412.61L348.61 412.64L348.6 412.67L348.59 412.7L348.58 412.73L348.57 412.76L348.56 412.79L348.56 412.81L348.55 412.84L348.55 412.86L348.55 412.88L348.55 412.9L348.54 412.92L348.54 412.94L348.54 412.95L348.54 412.96L348.54 412.97L348.54 412.97L393.51 412.97L393.51 323.03L406.49 323.03L406.49 412.97L475.68 412.97L475.68 323.03L488.65 323.03L488.65 412.97L533.62 412.97L533.56 412.97L533.5 412.97L533.44 412.96L533.39 412.95L533.34 412.94L533.29 412.92L533.24 412.9L533.2 412.88L533.16 412.86L533.12 412.84L533.09 412.81L533.05 412.79L533.02 412.76L532.99 412.73L532.97 412.7L532.94 412.67L532.92 412.64L532.9 412.61L532.88 412.57L532.86 412.54L532.85 412.51L532.84 412.48L532.82 412.44L532.81 412.41L532.8 412.38L532.79 412.35L532.79 412.32L532.78 412.29L532.77 412.27L532.77 412.24L532.77 412.22L532.76 412.2L532.76 412.18L532.76 412.16L532.76 412.15L532.76 412.13L532.76 412.12L532.76 412.11L532.76 412.11L532.3 411.25L531.82 410.36L531.34 409.43L530.85 408.47L530.35 407.47L529.84 406.44L529.33 405.37L528.81 404.27L528.29 403.13L527.77 401.95L527.25 400.73L526.72 399.47L526.2 398.17L525.68 396.83L525.17 395.45L524.66 394.02L524.16 392.56L523.66 391.05L523.18 389.49L522.7 387.89L522.24 386.25L521.79 384.56L521.35 382.82L520.93 381.04L520.52 379.2L520.13 377.32L519.76 375.39L519.41 373.41L519.08 371.38L518.77 369.3L518.49 367.16L518.23 364.98L517.99 362.74L517.79 360.44L517.61 358.09L517.46 355.69L517.34 353.23L517.26 350.72L517.21 348.14L517.19 345.51L517.19 279.78L517.14 277.53L517.01 275.29L516.79 273.08L516.48 270.9L516.09 268.75L515.62 266.63L515.06 264.55L514.43 262.49L513.72 260.48L512.93 258.5L512.07 256.56L511.14 254.67L510.14 252.81L509.07 251L507.93 249.24L506.73 247.53L505.46 245.86L504.13 244.25L502.74 242.69L501.3 241.19L499.79 239.74L498.23 238.35L496.62 237.03L494.96 235.76L493.24 234.56L491.48 233.42L489.67 232.35L487.82 231.35L485.92 230.41L483.99 229.55L482.01 228.77L479.99 228.06L477.94 227.42L475.85 226.87L473.73 226.4L471.58 226.01L469.4 225.7L467.2 225.48L464.96 225.34L462.7 225.3L419.46 225.3L417.2 225.34Z" id="hkmXty7t"></path><path d="M556.11 400.86C556.97 402.59 557.84 404.32 558.7 406.05C558.7 405.19 558.7 400.86 558.7 393.08C555.07 393.08 553.05 393.08 552.65 393.08C553.51 395.68 555.24 398.27 556.11 400.86" id="c12vv0c2S4"></path><path d="M563.89 321.3C556.11 321.3 549.19 323.03 543.14 326.49C543.14 328.04 543.14 340.5 543.14 342.05C549.19 337.73 556.11 335.14 563.89 335.14C566.83 335.14 590.36 335.14 593.3 335.14C612.32 335.14 627.03 350.7 627.03 368.86C627.03 373.79 627.03 413.23 627.03 418.16C627.03 425.95 620.97 432 613.19 432C613.13 432 612.84 432 612.32 432L612.32 393.08L599.35 393.08L599.35 431.14L599.35 444.11C599.35 491.85 599.35 518.37 599.35 523.68C599.35 529.73 595.03 534.05 588.97 534.05C588.74 534.05 587.59 534.05 585.51 534.05C585.51 489.43 585.51 464.63 585.51 459.68C585.51 456.22 582.92 452.76 578.59 452.76C574.27 452.76 571.68 455.35 571.68 459.68C571.68 464.63 571.68 489.43 571.68 534.05C569.6 534.05 568.45 534.05 568.22 534.05C562.16 534.05 557.84 529.73 557.84 523.68C557.84 518.37 557.84 491.85 557.84 444.11L557.84 431.14C557.84 429.06 557.84 427.91 557.84 427.68C557.84 427.68 557.84 428.54 557.84 428.54C553.51 435.46 546.59 438.92 536.22 438.92C535.52 438.92 529.99 438.92 529.3 438.92C533.62 441.51 538.81 444.11 544.86 444.11C544.92 444.11 545.21 444.11 545.73 444.11C545.73 491.85 545.73 518.37 545.73 523.68C545.73 536.65 556.11 547.03 569.08 547.03C571.16 547.03 587.76 547.03 589.84 547.03C602.81 547.03 613.19 536.65 613.19 523.68C613.19 518.37 613.19 491.85 613.19 444.11C613.71 444.11 614 444.11 614.05 444.11C628.76 444.11 640.86 432 640.86 417.3C640.86 412.37 640.86 372.93 640.86 368C640 342.05 619.24 321.3 593.3 321.3C587.42 321.3 566.83 321.3 563.89 321.3Z" id="ckDnsgCDD"></path></defs><g><g><g><use xlink:href="#azdOeB5yX" opacity="1" fill="#030001" fill-opacity="1"></use><g><use xlink:href="#azdOeB5yX" opacity="1" fill-opacity="0" stroke="#000000" stroke-width="1" stroke-opacity="0"></use></g></g><g><use xlink:href="#d7P3FZjfG" opacity="1" fill="#030001" fill-opacity="1"></use><g><use xlink:href="#d7P3FZjfG" opacity="1" fill-opacity="0" stroke="#000000" stroke-width="1" stroke-opacity="0"></use></g></g><g><use xlink:href="#d6yiZQRIn" opacity="1" fill="#030001" fill-opacity="1"></use><g><use xlink:href="#d6yiZQRIn" opacity="1" fill-opacity="0" stroke="#000000" stroke-width="1" stroke-opacity="0"></use></g></g><g><use xlink:href="#hXfHLDPzR" opacity="1" fill="#030001" fill-opacity="1"></use><g><use xlink:href="#hXfHLDPzR" opacity="1" fill-opacity="0" stroke="#000000" stroke-width="1" stroke-opacity="0"></use></g></g><g><use xlink:href="#cguUlWlKw" opacity="1" fill="#030001" fill-opacity="1"></use><g><use xlink:href="#cguUlWlKw" opacity="1" fill-opacity="0" stroke="#000000" stroke-width="1" stroke-opacity="0"></use></g></g><g><use xlink:href="#h1O7fGL37z" opacity="1" fill="#030001" fill-opacity="1"></use><g><use xlink:href="#h1O7fGL37z" opacity="1" fill-opacity="0" stroke="#000000" stroke-width="1" stroke-opacity="0"></use></g></g><g><use xlink:href="#a34mVU8WCT" opacity="1" fill="#030001" fill-opacity="1"></use><g><use xlink:href="#a34mVU8WCT" opacity="1" fill-opacity="0" stroke="#000000" stroke-width="1" stroke-opacity="0"></use></g></g><g><use xlink:href="#b33tlqdBE" opacity="1" fill="#030001" fill-opacity="1"></use><g><use xlink:href="#b33tlqdBE" opacity="1" fill-opacity="0" stroke="#000000" stroke-width="1" stroke-opacity="0"></use></g></g><g><use xlink:href="#f1mogKtykN" opacity="1" fill="#030001" fill-opacity="1"></use><g><use xlink:href="#f1mogKtykN" opacity="1" fill-opacity="0" stroke="#000000" stroke-width="1" stroke-opacity="0"></use></g></g><g><use xlink:href="#dRckd1ToG" opacity="1" fill="#030001" fill-opacity="1"></use><g><use xlink:href="#dRckd1ToG" opacity="1" fill-opacity="0" stroke="#000000" stroke-width="1" stroke-opacity="0"></use></g></g><g><use xlink:href="#hkmXty7t" opacity="1" fill="#030001" fill-opacity="1"></use><g><use xlink:href="#hkmXty7t" opacity="1" fill-opacity="0" stroke="#000000" stroke-width="1" stroke-opacity="0"></use></g></g><g><use xlink:href="#c12vv0c2S4" opacity="1" fill="#030001" fill-opacity="1"></use><g><use xlink:href="#c12vv0c2S4" opacity="1" fill-opacity="0" stroke="#000000" stroke-width="1" stroke-opacity="0"></use></g></g><g><use xlink:href="#ckDnsgCDD" opacity="1" fill="#030001" fill-opacity="1"></use><g><use xlink:href="#ckDnsgCDD" opacity="1" fill-opacity="0" stroke="#000000" stroke-width="1" stroke-opacity="0"></use></g></g></g></g></svg>